<svg width="172" height="399" viewBox="0 0 172 399" fill="none" xmlns="http://www.w3.org/2000/svg">
<g opacity="0.2">
<path d="M99.5496 244.37L62.0734 244.52C61.111 240.115 60.7784 235.707 60.7582 230.669C60.6989 215.867 66.6182 199.782 84.5147 186.168L100.528 174.137C109.006 167.804 111.81 160.235 111.777 152.046C111.728 139.764 102.547 127.834 83.6514 127.91C65.3857 127.983 54.7376 142.827 54.7969 157.629C54.8259 164.872 55.4683 168.019 55.7883 169.277L11.6924 167.879C10.73 163.474 10.3961 158.751 10.3797 154.657C10.2321 117.811 37.5057 86.5235 83.4849 86.3393C134.503 86.1349 160.134 116.581 160.26 148.073C160.361 173.267 148.778 190.635 129.94 204.882L118.008 213.748C107.018 221.98 99.4928 230.199 99.5496 244.37ZM55.0143 290.529C54.9538 275.412 66.8718 263.082 81.9882 263.021C97.1046 262.961 109.436 275.194 109.496 290.31C109.556 305.112 97.3229 317.443 82.2065 317.504C67.09 317.564 55.0736 305.33 55.0143 290.529Z" fill="#003149"/>
</g>
</svg>
