<svg width="816" height="251" viewBox="0 0 816 251" fill="none" xmlns="http://www.w3.org/2000/svg">
<path d="M0.861261 38.1591C0.861261 17.5601 17.5601 0.861221 38.1591 0.861221H758.007C778.607 0.861221 795.305 17.56 795.305 38.1591V212.713C795.305 233.312 778.607 250.011 758.008 250.011H38.1592C17.5601 250.011 0.861261 233.312 0.861261 212.713V38.1591Z" fill="#9BD7E6"/>
<path d="M600.61 250.011C600.61 224.443 605.646 199.126 615.431 175.504C625.215 151.883 639.556 130.42 657.635 112.341C675.714 94.2616 697.177 79.9205 720.799 70.1362C744.42 60.3519 769.737 55.316 795.305 55.316V250.011H600.61Z" fill="#CAF4FF"/>
<path d="M650.146 249.697C650.146 230.594 653.909 211.677 661.22 194.027C668.53 176.378 679.246 160.341 692.754 146.833C706.262 133.324 722.299 122.609 739.949 115.298C757.598 107.988 776.515 104.225 795.619 104.225V212.399C795.619 232.998 778.92 249.697 758.321 249.697H650.146Z" fill="#B2EFFF"/>
<path d="M152.048 0.0479736C152.174 20.0152 148.365 39.8115 140.839 58.3067C133.313 76.8019 122.219 93.6337 108.188 107.841C94.1577 122.049 77.4662 133.353 59.0668 141.11C40.6674 148.867 20.9203 152.923 0.953091 153.049L0.000488281 1.00058L152.048 0.0479736Z" fill="#DAF7FF"/>
<path d="M695.92 250.011C695.92 236.959 698.491 224.036 703.485 211.978C708.48 199.92 715.8 188.964 725.029 179.735C734.258 170.506 745.214 163.185 757.272 158.191C769.33 153.196 782.254 150.626 795.305 150.626L795.305 250.011L695.92 250.011Z" fill="#7BE4FF"/>
<path d="M739.186 249.384C739.186 242.014 740.637 234.716 743.458 227.908C746.278 221.099 750.412 214.912 755.623 209.701C760.834 204.49 767.021 200.356 773.829 197.536C780.638 194.716 787.936 193.264 795.305 193.264L794.451 203.82C793.218 219.036 799.005 233.982 810.164 244.401L815.5 249.384L739.186 249.384Z" fill="#37D5FF"/>
<path d="M117.976 0.48822C117.976 15.917 114.937 31.1947 109.033 45.449C103.129 59.7033 94.4746 72.6551 83.5648 83.5649C72.6551 94.4747 59.7033 103.129 45.4489 109.033C31.1946 114.938 15.9169 117.976 0.48813 117.976L0.488138 0.48822H117.976Z" fill="#CAF4FF"/>
<path d="M88.4622 0.299118C88.4622 11.8272 86.1915 23.2424 81.7799 33.893C77.3683 44.5436 70.9021 54.2209 62.7505 62.3725C54.5989 70.5241 44.9215 76.9903 34.271 81.4019C23.6204 85.8136 12.2052 88.0842 0.67708 88.0842L0.677088 0.299118H88.4622Z" fill="#B2EFFF"/>
<path d="M60.4623 0.488152C60.4623 8.36403 58.911 16.1628 55.897 23.4392C52.8831 30.7155 48.4654 37.327 42.8964 42.8961C37.3273 48.4652 30.7158 52.8828 23.4394 55.8968C16.1631 58.9107 8.36431 60.462 0.488432 60.462L0.488138 0.48822L60.4623 0.488152Z" fill="#7BE4FF"/>
<path d="M34.3537 0.109886C34.3537 4.55715 33.4778 8.96087 31.7759 13.0696C30.074 17.1783 27.5795 20.9116 24.4348 24.0563C21.2901 27.201 17.5568 29.6955 13.4481 31.3974C9.33932 33.0993 4.93561 33.9753 0.488344 33.9753V0.109886H34.3537Z" fill="#37D5FF"/>
<path d="M264.779 81.2L279.674 76.7535H287.456V129H276.191V88.3144L267.15 90.5377L264.779 81.2Z" fill="black"/>
<path d="M359.984 129H322.708V77.124H334.12V118.625H359.984V129Z" fill="black"/>
<path d="M419.133 129H407.202L402.459 117.365H380.523L375.78 129H364.145L386.377 76.7535H396.901L419.133 129ZM398.383 107.286L391.491 90.4635L384.599 107.286H398.383Z" fill="black"/>
<path d="M474.347 129H460.637L444.556 106.916L438.553 113.141V129H427.14V77.124H438.553V99.8012L459.6 77.124H473.384L452.263 99.1343L474.347 129Z" fill="black"/>
<path d="M525.146 129H513.734V108.175H492.687V129H481.274V77.124H492.687V97.6521H513.734V77.124H525.146V129Z" fill="black"/>
<path d="M307.281 162.51H311.459C314.096 162.51 315.715 160.944 315.715 158.672C315.715 156.401 314.096 154.808 311.459 154.808H307.281V162.51ZM311.72 163.998H307.281V171.831H305.611V153.32H311.72C315.114 153.32 317.385 155.617 317.385 158.672C317.385 161.727 315.114 163.998 311.72 163.998Z" fill="black"/>
<path d="M322.882 172.144C320.271 172.144 318.809 170.421 318.809 168.619C318.809 166.505 320.271 165.278 322.542 164.938L325.858 164.442C326.929 164.285 327.164 163.816 327.164 163.241C327.164 161.596 326.067 160.421 324.031 160.421C322.046 160.421 320.741 161.518 320.532 163.319L319.07 163.006C319.357 160.63 321.342 159.064 324.005 159.064C327.242 159.064 328.73 161.022 328.73 163.398V169.69C328.73 170.682 328.809 171.309 328.913 171.831H327.373C327.32 171.544 327.216 170.708 327.216 169.69C326.642 170.865 325.153 172.144 322.882 172.144ZM323.065 170.813C325.441 170.813 327.164 169.246 327.164 166.74V165.33C327.085 165.408 326.746 165.565 326.25 165.643L322.777 166.165C321.315 166.374 320.402 167.184 320.402 168.541C320.402 169.69 321.342 170.813 323.065 170.813Z" fill="black"/>
<path d="M343.038 159.377L337.738 164.677L343.142 171.831H341.184L336.641 165.748L334.344 168.019V171.831H332.777V152.98H334.344V165.956L340.871 159.377H343.038Z" fill="black"/>
<path d="M347.296 171.831H345.729V159.377H347.296V171.831ZM345.207 154.208C345.207 153.45 345.782 152.902 346.513 152.902C347.244 152.902 347.818 153.45 347.818 154.208C347.818 154.965 347.244 155.513 346.513 155.513C345.782 155.513 345.207 154.965 345.207 154.208Z" fill="black"/>
<path d="M350.422 168.567L351.858 168.071C352.093 169.585 353.241 170.813 355.278 170.813C356.818 170.813 358.045 169.899 358.045 168.593C358.045 167.445 357.262 166.818 355.931 166.505L353.92 166.035C352.093 165.617 350.866 164.52 350.866 162.719C350.866 160.709 352.798 159.064 355.069 159.064C357.967 159.064 359.194 160.787 359.534 162.275L358.15 162.797C357.915 161.596 357.053 160.421 355.069 160.421C353.659 160.421 352.406 161.309 352.406 162.615C352.406 163.685 353.085 164.312 354.364 164.599L356.348 165.043C358.411 165.513 359.586 166.687 359.586 168.489C359.586 170.343 358.019 172.17 355.252 172.17C352.197 172.17 350.657 170.212 350.422 168.567Z" fill="black"/>
<path d="M365.472 155.435V159.377H368.709V160.787H365.472V168.306C365.472 169.82 366.177 170.552 367.587 170.552C368.031 170.552 368.474 170.447 368.709 170.343V171.726C368.501 171.831 367.926 171.961 367.169 171.961C365.159 171.961 363.905 170.734 363.905 168.463V160.787H361.269V159.377H362.208C363.436 159.377 363.958 158.829 363.958 157.549V155.435H365.472Z" fill="black"/>
<path d="M374.665 172.144C372.055 172.144 370.593 170.421 370.593 168.619C370.593 166.505 372.055 165.278 374.326 164.938L377.642 164.442C378.712 164.285 378.947 163.816 378.947 163.241C378.947 161.596 377.851 160.421 375.814 160.421C373.83 160.421 372.525 161.518 372.316 163.319L370.854 163.006C371.141 160.63 373.125 159.064 375.788 159.064C379.026 159.064 380.514 161.022 380.514 163.398V169.69C380.514 170.682 380.592 171.309 380.697 171.831H379.156C379.104 171.544 378.999 170.708 378.999 169.69C378.425 170.865 376.937 172.144 374.665 172.144ZM374.848 170.813C377.224 170.813 378.947 169.246 378.947 166.74V165.33C378.869 165.408 378.53 165.565 378.033 165.643L374.561 166.165C373.099 166.374 372.185 167.184 372.185 168.541C372.185 169.69 373.125 170.813 374.848 170.813Z" fill="black"/>
<path d="M386.127 164.39V171.831H384.561V159.377H386.075V161.361C386.754 160.03 388.216 159.064 390.122 159.064C393.046 159.064 394.534 161.152 394.534 163.711V171.831H392.967V163.972C392.967 162.014 392.001 160.474 389.599 160.474C387.459 160.474 386.127 162.275 386.127 164.39Z" fill="black"/>
<path d="M400.15 171.831H398.584V159.377H400.15V171.831ZM398.061 154.208C398.061 153.45 398.636 152.902 399.367 152.902C400.098 152.902 400.672 153.45 400.672 154.208C400.672 154.965 400.098 155.513 399.367 155.513C398.636 155.513 398.061 154.965 398.061 154.208Z" fill="black"/>
<path d="M421.625 171.831L417.16 163.816H413.296V171.831H411.625V153.32H418.074C421.39 153.32 423.583 155.617 423.583 158.594C423.583 161.283 421.781 163.346 418.962 163.711L423.557 171.831H421.625ZM413.296 162.327H417.813C420.267 162.327 421.912 160.839 421.912 158.594C421.912 156.322 420.267 154.808 417.813 154.808H413.296V162.327Z" fill="black"/>
<path d="M435.19 169.899C434.615 171.1 433.232 172.17 431.274 172.17C428.114 172.17 426.626 169.82 426.626 167.21V159.377H428.193V166.949C428.193 168.933 429.107 170.76 431.561 170.76C433.78 170.76 435.085 169.063 435.085 166.975V159.377H436.652V169.455C436.652 170.395 436.73 171.283 436.809 171.831H435.32C435.268 171.57 435.19 170.865 435.19 170.082V169.899Z" fill="black"/>
<path d="M442.423 176.791H440.857V159.377H442.397V161.857C442.998 160.578 444.46 159.038 446.94 159.038C450.465 159.038 452.58 161.91 452.58 165.591C452.58 169.298 450.387 172.17 446.888 172.17C444.486 172.17 443.05 170.734 442.423 169.481V176.791ZM451.013 165.591C451.013 162.667 449.29 160.448 446.679 160.448C444.094 160.448 442.397 162.693 442.397 165.591C442.397 168.541 444.094 170.76 446.679 170.76C449.29 170.76 451.013 168.515 451.013 165.591Z" fill="black"/>
<path d="M456.709 164.599H465.011C464.959 162.275 463.471 160.448 460.86 160.448C458.536 160.448 456.865 162.301 456.709 164.599ZM465.194 167.81L466.578 168.306C465.873 170.421 463.993 172.17 461.121 172.17C457.831 172.17 455.064 169.742 455.064 165.565C455.064 161.649 457.727 159.038 460.834 159.038C464.515 159.038 466.63 161.649 466.656 165.33C466.656 165.539 466.656 165.695 466.63 165.904H456.656V166.009C456.683 168.881 458.667 170.76 461.121 170.76C463.366 170.76 464.672 169.455 465.194 167.81Z" fill="black"/>
<path d="M470.681 164.599H478.983C478.931 162.275 477.443 160.448 474.832 160.448C472.508 160.448 470.837 162.301 470.681 164.599ZM479.166 167.81L480.55 168.306C479.845 170.421 477.965 172.17 475.093 172.17C471.804 172.17 469.036 169.742 469.036 165.565C469.036 161.649 471.699 159.038 474.806 159.038C478.487 159.038 480.602 161.649 480.628 165.33C480.628 165.539 480.628 165.695 480.602 165.904H470.629V166.009C470.655 168.881 472.639 170.76 475.093 170.76C477.339 170.76 478.644 169.455 479.166 167.81Z" fill="black"/>
<path d="M482.825 168.567L484.261 168.071C484.496 169.585 485.645 170.813 487.682 170.813C489.222 170.813 490.449 169.899 490.449 168.593C490.449 167.445 489.666 166.818 488.334 166.505L486.324 166.035C484.496 165.617 483.269 164.52 483.269 162.719C483.269 160.709 485.201 159.064 487.473 159.064C490.371 159.064 491.598 160.787 491.937 162.275L490.553 162.797C490.319 161.596 489.457 160.421 487.473 160.421C486.063 160.421 484.81 161.309 484.81 162.615C484.81 163.685 485.488 164.312 486.768 164.599L488.752 165.043C490.815 165.513 491.989 166.687 491.989 168.489C491.989 170.343 490.423 172.17 487.655 172.17C484.601 172.17 483.06 170.212 482.825 168.567Z" fill="black"/>
</svg>
