<svg width="462" height="253" viewBox="0 0 462 253" fill="none" xmlns="http://www.w3.org/2000/svg">
<path d="M1.72712 6.97718C-1.21282 5.11521 0.125464 0.566277 3.60533 0.593016L409.989 3.71561C430.475 3.87303 447 20.5252 447 41.0124V218.293C447 229.498 452.038 240.11 460.721 247.193V247.193C462.495 248.641 461.477 251.515 459.187 251.523L55.4227 252.875C34.775 252.944 18 236.225 18 215.577V33.441C18 27.0242 15.7146 20.8172 11.5536 15.9324L10.1636 14.3007C7.73504 11.4498 4.891 8.98096 1.72712 6.97718V6.97718Z" fill="#FE9F85"/>
<path d="M209 151C209 193.526 174.526 228 132 228C89.4741 228 55 193.526 55 151C55 108.474 89.4741 74 132 74C174.526 74 209 108.474 209 151Z" fill="#FFAC95"/>
<path d="M183 151C183 179.167 160.167 202 132 202C103.833 202 81 179.167 81 151C81 122.833 103.833 100 132 100C160.167 100 183 122.833 183 151Z" fill="#F88F72"/>
<path d="M164 151C164 168.673 149.673 183 132 183C114.327 183 100 168.673 100 151C100 133.327 114.327 119 132 119C149.673 119 164 133.327 164 151Z" fill="#E8795B"/>
<path d="M147 151C147 159.284 140.284 166 132 166C123.716 166 117 159.284 117 151C117 142.716 123.716 136 132 136C140.284 136 147 142.716 147 151Z" fill="#CF6245"/>
<path d="M400 86C400 113.062 378.062 135 351 135C323.938 135 302 113.062 302 86C302 58.938 323.938 37 351 37C378.062 37 400 58.938 400 86Z" fill="#FFAC95"/>
<path d="M383.454 86C383.454 103.924 368.924 118.454 351 118.454C333.076 118.454 318.545 103.924 318.545 86C318.545 68.0758 333.076 53.5454 351 53.5454C368.924 53.5454 383.454 68.0758 383.454 86Z" fill="#F88F72"/>
<path d="M371.363 86C371.363 97.2465 362.246 106.364 351 106.364C339.753 106.364 330.636 97.2465 330.636 86C330.636 74.7535 339.753 65.6364 351 65.6364C362.246 65.6364 371.363 74.7535 371.363 86Z" fill="#E8795B"/>
<path d="M360.546 86C360.546 91.2719 356.272 95.5455 351 95.5455C345.728 95.5455 341.455 91.2719 341.455 86C341.455 80.7282 345.728 76.4546 351 76.4546C356.272 76.4546 360.546 80.7282 360.546 86Z" fill="#CF6245"/>
<path d="M322 45C322 60.464 309.464 73 294 73C278.536 73 266 60.464 266 45C266 29.536 278.536 17 294 17C309.464 17 322 29.536 322 45Z" fill="#FFAC95"/>
<path d="M312.546 44.9999C312.546 55.2423 304.242 63.5454 294 63.5454C283.758 63.5454 275.455 55.2423 275.455 44.9999C275.455 34.7576 283.758 26.4545 294 26.4545C304.242 26.4545 312.546 34.7576 312.546 44.9999Z" fill="#F88F72"/>
<path d="M305.636 45C305.636 51.4266 300.426 56.6364 294 56.6364C287.573 56.6364 282.363 51.4266 282.363 45C282.363 38.5734 287.573 33.3636 294 33.3636C300.426 33.3636 305.636 38.5734 305.636 45Z" fill="#E8795B"/>
<path d="M299.454 45.0001C299.454 48.0125 297.012 50.4546 294 50.4546C290.988 50.4546 288.545 48.0125 288.545 45.0001C288.545 41.9876 290.988 39.5455 294 39.5455C297.012 39.5455 299.454 41.9876 299.454 45.0001Z" fill="#CF6245"/>
<path d="M425 192C425 207.464 412.464 220 397 220C381.536 220 369 207.464 369 192C369 176.536 381.536 164 397 164C412.464 164 425 176.536 425 192Z" fill="#FFAC95"/>
<path d="M415.546 192C415.546 202.242 407.242 210.545 397 210.545C386.758 210.545 378.455 202.242 378.455 192C378.455 181.758 386.758 173.454 397 173.454C407.242 173.454 415.546 181.758 415.546 192Z" fill="#F88F72"/>
<path d="M408.636 192C408.636 198.427 403.426 203.636 397 203.636C390.573 203.636 385.363 198.427 385.363 192C385.363 185.573 390.573 180.364 397 180.364C403.426 180.364 408.636 185.573 408.636 192Z" fill="#E8795B"/>
<path d="M402.454 192C402.454 195.013 400.012 197.455 397 197.455C393.988 197.455 391.545 195.013 391.545 192C391.545 188.988 393.988 186.546 397 186.546C400.012 186.546 402.454 188.988 402.454 192Z" fill="#CF6245"/>
<path d="M373 173C373 184.598 363.598 194 352 194C340.402 194 331 184.598 331 173C331 161.402 340.402 152 352 152C363.598 152 373 161.402 373 173Z" fill="#FFAC95"/>
<path d="M365.909 173C365.909 180.682 359.682 186.909 352 186.909C344.318 186.909 338.091 180.682 338.091 173C338.091 165.318 344.318 159.091 352 159.091C359.682 159.091 365.909 165.318 365.909 173Z" fill="#F88F72"/>
<path d="M360.727 173C360.727 177.82 356.82 181.727 352 181.727C347.18 181.727 343.272 177.82 343.272 173C343.272 168.18 347.18 164.273 352 164.273C356.82 164.273 360.727 168.18 360.727 173Z" fill="#E8795B"/>
<path d="M356.091 173C356.091 175.259 354.259 177.091 352 177.091C349.741 177.091 347.909 175.259 347.909 173C347.909 170.741 349.741 168.909 352 168.909C354.259 168.909 356.091 170.741 356.091 173Z" fill="#CF6245"/>
<path d="M378 214C378 226.15 368.15 236 356 236C343.85 236 334 226.15 334 214C334 201.85 343.85 192 356 192C368.15 192 378 201.85 378 214Z" fill="#FFAC95"/>
<path d="M370.572 214C370.572 222.047 364.048 228.571 356 228.571C347.953 228.571 341.429 222.047 341.429 214C341.429 205.952 347.953 199.428 356 199.428C364.048 199.428 370.572 205.952 370.572 214Z" fill="#F88F72"/>
<path d="M365.143 214C365.143 219.049 361.049 223.143 356 223.143C350.95 223.143 346.857 219.049 346.857 214C346.857 208.951 350.95 204.857 356 204.857C361.049 204.857 365.143 208.951 365.143 214Z" fill="#E8795B"/>
<path d="M360.286 214C360.286 216.367 358.367 218.286 356 218.286C353.633 218.286 351.714 216.367 351.714 214C351.714 211.633 353.633 209.714 356 209.714C358.367 209.714 360.286 211.633 360.286 214Z" fill="#CF6245"/>
<path d="M180.5 101.25L181.5 84H203V90.75H188.1L187.7 96.8C189.1 96.45 190.35 96.2 192.3 96.2C199.2 96.2 204.55 99.5 204.55 107.45C204.55 114.9 199.3 119.6 191.25 119.6C185.65 119.6 181.55 117.6 178.15 114.35L182.8 108.8C185.45 111.2 188.05 112.6 191.15 112.6C194.75 112.6 197 110.85 197 107.7C197 104.65 194.55 102.9 190.8 102.9C188.6 102.9 186.6 103.5 184.95 104.2L180.5 101.25Z" fill="black"/>
<path d="M241.294 101.45C241.294 111.65 235.044 119.6 225.694 119.6C216.344 119.6 210.194 111.75 210.194 101.55C210.194 91.35 216.444 83.4 225.794 83.4C235.144 83.4 241.294 91.25 241.294 101.45ZM233.394 101.55C233.394 95.15 230.344 90.35 225.694 90.35C221.044 90.35 218.094 95 218.094 101.45C218.094 107.9 221.144 112.65 225.794 112.65C230.444 112.65 233.394 107.95 233.394 101.55Z" fill="black"/>
<path d="M280.068 119H270.818L259.968 104.1L255.918 108.3V119H248.218V84H255.918V99.3L270.118 84H279.418L265.168 98.85L280.068 119Z" fill="black"/>
<path d="M159.3 141.86H162.5C164.52 141.86 165.76 140.66 165.76 138.92C165.76 137.18 164.52 135.96 162.5 135.96H159.3V141.86ZM162.7 143H159.3V149H158.02V134.82H162.7C165.3 134.82 167.04 136.58 167.04 138.92C167.04 141.26 165.3 143 162.7 143Z" fill="black"/>
<path d="M171.25 149.24C169.25 149.24 168.13 147.92 168.13 146.54C168.13 144.92 169.25 143.98 170.99 143.72L173.53 143.34C174.35 143.22 174.53 142.86 174.53 142.42C174.53 141.16 173.69 140.26 172.13 140.26C170.61 140.26 169.61 141.1 169.45 142.48L168.33 142.24C168.55 140.42 170.07 139.22 172.11 139.22C174.59 139.22 175.73 140.72 175.73 142.54V147.36C175.73 148.12 175.79 148.6 175.87 149H174.69C174.65 148.78 174.57 148.14 174.57 147.36C174.13 148.26 172.99 149.24 171.25 149.24ZM171.39 148.22C173.21 148.22 174.53 147.02 174.53 145.1V144.02C174.47 144.08 174.21 144.2 173.83 144.26L171.17 144.66C170.05 144.82 169.35 145.44 169.35 146.48C169.35 147.36 170.07 148.22 171.39 148.22Z" fill="black"/>
<path d="M186.69 139.46L182.63 143.52L186.77 149H185.27L181.79 144.34L180.03 146.08V149H178.83V134.56H180.03V144.5L185.03 139.46H186.69Z" fill="black"/>
<path d="M189.952 149H188.752V139.46H189.952V149ZM188.352 135.5C188.352 134.92 188.792 134.5 189.352 134.5C189.912 134.5 190.352 134.92 190.352 135.5C190.352 136.08 189.912 136.5 189.352 136.5C188.792 136.5 188.352 136.08 188.352 135.5Z" fill="black"/>
<path d="M192.347 146.5L193.447 146.12C193.627 147.28 194.507 148.22 196.067 148.22C197.247 148.22 198.187 147.52 198.187 146.52C198.187 145.64 197.587 145.16 196.567 144.92L195.027 144.56C193.627 144.24 192.687 143.4 192.687 142.02C192.687 140.48 194.167 139.22 195.907 139.22C198.127 139.22 199.067 140.54 199.327 141.68L198.267 142.08C198.087 141.16 197.427 140.26 195.907 140.26C194.827 140.26 193.867 140.94 193.867 141.94C193.867 142.76 194.387 143.24 195.367 143.46L196.887 143.8C198.467 144.16 199.367 145.06 199.367 146.44C199.367 147.86 198.167 149.26 196.047 149.26C193.707 149.26 192.527 147.76 192.347 146.5Z" fill="black"/>
<path d="M203.876 136.44V139.46H206.356V140.54H203.876V146.3C203.876 147.46 204.416 148.02 205.496 148.02C205.836 148.02 206.176 147.94 206.356 147.86V148.92C206.196 149 205.756 149.1 205.176 149.1C203.636 149.1 202.676 148.16 202.676 146.42V140.54H200.656V139.46H201.376C202.316 139.46 202.716 139.04 202.716 138.06V136.44H203.876Z" fill="black"/>
<path d="M210.918 149.24C208.918 149.24 207.798 147.92 207.798 146.54C207.798 144.92 208.918 143.98 210.658 143.72L213.198 143.34C214.018 143.22 214.198 142.86 214.198 142.42C214.198 141.16 213.358 140.26 211.798 140.26C210.278 140.26 209.278 141.1 209.118 142.48L207.998 142.24C208.218 140.42 209.738 139.22 211.778 139.22C214.258 139.22 215.398 140.72 215.398 142.54V147.36C215.398 148.12 215.458 148.6 215.538 149H214.358C214.318 148.78 214.238 148.14 214.238 147.36C213.798 148.26 212.658 149.24 210.918 149.24ZM211.058 148.22C212.878 148.22 214.198 147.02 214.198 145.1V144.02C214.138 144.08 213.878 144.2 213.498 144.26L210.838 144.66C209.718 144.82 209.018 145.44 209.018 146.48C209.018 147.36 209.738 148.22 211.058 148.22Z" fill="black"/>
<path d="M219.698 143.3V149H218.498V139.46H219.658V140.98C220.178 139.96 221.298 139.22 222.758 139.22C224.998 139.22 226.138 140.82 226.138 142.78V149H224.938V142.98C224.938 141.48 224.198 140.3 222.358 140.3C220.718 140.3 219.698 141.68 219.698 143.3Z" fill="black"/>
<path d="M230.441 149H229.241V139.46H230.441V149ZM228.841 135.5C228.841 134.92 229.281 134.5 229.841 134.5C230.401 134.5 230.841 134.92 230.841 135.5C230.841 136.08 230.401 136.5 229.841 136.5C229.281 136.5 228.841 136.08 228.841 135.5Z" fill="black"/>
<path d="M246.891 149L243.471 142.86H240.511V149H239.231V134.82H244.171C246.711 134.82 248.391 136.58 248.391 138.86C248.391 140.92 247.011 142.5 244.851 142.78L248.371 149H246.891ZM240.511 141.72H243.971C245.851 141.72 247.111 140.58 247.111 138.86C247.111 137.12 245.851 135.96 243.971 135.96H240.511V141.72Z" fill="black"/>
<path d="M257.282 147.52C256.842 148.44 255.782 149.26 254.282 149.26C251.862 149.26 250.722 147.46 250.722 145.46V139.46H251.922V145.26C251.922 146.78 252.622 148.18 254.502 148.18C256.202 148.18 257.202 146.88 257.202 145.28V139.46H258.402V147.18C258.402 147.9 258.462 148.58 258.522 149H257.382C257.342 148.8 257.282 148.26 257.282 147.66V147.52Z" fill="black"/>
<path d="M262.823 152.8H261.623V139.46H262.803V141.36C263.263 140.38 264.383 139.2 266.283 139.2C268.983 139.2 270.603 141.4 270.603 144.22C270.603 147.06 268.923 149.26 266.243 149.26C264.403 149.26 263.303 148.16 262.823 147.2V152.8ZM269.403 144.22C269.403 141.98 268.083 140.28 266.083 140.28C264.103 140.28 262.803 142 262.803 144.22C262.803 146.48 264.103 148.18 266.083 148.18C268.083 148.18 269.403 146.46 269.403 144.22Z" fill="black"/>
<path d="M273.766 143.46H280.126C280.086 141.68 278.946 140.28 276.946 140.28C275.166 140.28 273.886 141.7 273.766 143.46ZM280.266 145.92L281.326 146.3C280.786 147.92 279.346 149.26 277.146 149.26C274.626 149.26 272.506 147.4 272.506 144.2C272.506 141.2 274.546 139.2 276.926 139.2C279.746 139.2 281.366 141.2 281.386 144.02C281.386 144.18 281.386 144.3 281.366 144.46H273.726V144.54C273.746 146.74 275.266 148.18 277.146 148.18C278.866 148.18 279.866 147.18 280.266 145.92Z" fill="black"/>
<path d="M284.47 143.46H290.83C290.79 141.68 289.65 140.28 287.65 140.28C285.87 140.28 284.59 141.7 284.47 143.46ZM290.97 145.92L292.03 146.3C291.49 147.92 290.05 149.26 287.85 149.26C285.33 149.26 283.21 147.4 283.21 144.2C283.21 141.2 285.25 139.2 287.63 139.2C290.45 139.2 292.07 141.2 292.09 144.02C292.09 144.18 292.09 144.3 292.07 144.46H284.43V144.54C284.45 146.74 285.97 148.18 287.85 148.18C289.57 148.18 290.57 147.18 290.97 145.92Z" fill="black"/>
<path d="M293.773 146.5L294.873 146.12C295.053 147.28 295.933 148.22 297.493 148.22C298.673 148.22 299.613 147.52 299.613 146.52C299.613 145.64 299.013 145.16 297.993 144.92L296.453 144.56C295.053 144.24 294.113 143.4 294.113 142.02C294.113 140.48 295.593 139.22 297.333 139.22C299.553 139.22 300.493 140.54 300.753 141.68L299.693 142.08C299.513 141.16 298.853 140.26 297.333 140.26C296.253 140.26 295.293 140.94 295.293 141.94C295.293 142.76 295.813 143.24 296.793 143.46L298.313 143.8C299.893 144.16 300.793 145.06 300.793 146.44C300.793 147.86 299.593 149.26 297.473 149.26C295.133 149.26 293.953 147.76 293.773 146.5Z" fill="black"/>
</svg>
