<svg width="231" height="361" viewBox="0 0 231 361" fill="none" xmlns="http://www.w3.org/2000/svg">
<g opacity="0.2">
<path d="M202.441 55.8493L195.621 150.743H173.798L166.978 55.8493H202.441ZM167.757 179.191C167.757 169.838 175.162 162.239 184.515 162.239C193.868 162.239 201.467 169.838 201.467 179.191C201.467 188.349 193.868 195.949 184.515 195.949C175.162 195.949 167.757 188.349 167.757 179.191Z" fill="#003149"/>
<path d="M78.2713 253.02L85.9591 222.603H96.7888L83.8867 270H72.9901L62.8958 238.58L52.7345 270H41.6374L28.7354 222.603H39.9662L47.7876 252.953L57.6146 222.603H68.4443L78.2713 253.02ZM114.506 261.644C118.383 261.644 121.993 258.97 121.993 253.354C121.993 247.739 118.383 245.132 114.506 245.132C110.695 245.132 107.018 247.739 107.018 253.354C107.018 258.903 110.695 261.644 114.506 261.644ZM114.506 235.773C124.466 235.773 132.154 243.059 132.154 253.354C132.154 263.649 124.466 271.003 114.506 271.003C104.612 271.003 96.8572 263.649 96.8572 253.354C96.8572 243.059 104.612 235.773 114.506 235.773ZM184.487 253.02L192.175 222.603H203.005L190.103 270H179.206L169.112 238.58L158.951 270H147.853L134.951 222.603H146.182L154.004 252.953L163.831 222.603H174.66L184.487 253.02Z" fill="#003149"/>
<circle cx="115.5" cy="245.5" r="113" stroke="black" stroke-width="5" stroke-dasharray="10 10"/>
<rect x="103" y="222" width="25" height="6" fill="#003149"/>
</g>
</svg>
