<svg width="1244" height="843" viewBox="0 0 1244 843" fill="none" xmlns="http://www.w3.org/2000/svg">
<path opacity="0.3" d="M1163.67 91.1752C1174.16 91.1752 1182.67 83.0995 1182.67 73.1377C1182.67 63.1758 1174.16 55.1001 1163.67 55.1001C1153.17 55.1001 1144.67 63.1758 1144.67 73.1377C1144.67 83.0995 1153.17 91.1752 1163.67 91.1752Z" stroke="black" stroke-width="12.6667" stroke-linecap="round" stroke-linejoin="round"/>
<ellipse cx="634.525" cy="287.48" rx="229.525" ry="236.48" fill="#9BD7E6" fill-opacity="0.5"/>
<ellipse cx="828.455" cy="593.371" rx="229.525" ry="236.48" fill="#FE9F85" fill-opacity="0.5"/>
<ellipse cx="1013.52" cy="287.48" rx="229.525" ry="236.48" fill="#ABAAD7" fill-opacity="0.5"/>
<g opacity="0.3">
<path d="M477.333 60.9232C488.655 60.9232 497.833 52.2099 497.833 41.4616C497.833 30.7132 488.655 22 477.333 22C466.012 22 456.833 30.7132 456.833 41.4616C456.833 52.2099 466.012 60.9232 477.333 60.9232Z" stroke="black" stroke-width="13.6667" stroke-linecap="round" stroke-linejoin="round"/>
<path d="M477.333 151.744V60.9231" stroke="black" stroke-width="13.6667" stroke-linecap="round" stroke-linejoin="round"/>
<path d="M429.5 86.8718H409C409 104.077 416.199 120.577 429.014 132.743C441.829 144.909 459.21 151.744 477.333 151.744C495.456 151.744 512.837 144.909 525.652 132.743C538.467 120.577 545.667 104.077 545.667 86.8718H525.167" stroke="black" stroke-width="13.6667" stroke-linecap="round" stroke-linejoin="round"/>
</g>
<path d="M511.669 221.45H516.269C519.269 221.45 521.319 219.7 521.319 216.95C521.319 214.1 519.269 212.4 516.269 212.4H511.669V221.45ZM517.069 228.25H511.619V241H503.719V205.55H517.069C524.269 205.55 529.219 210.3 529.219 216.9C529.219 223.6 524.269 228.25 517.069 228.25ZM551.189 241L544.839 227.8H542.039V241H534.139V205.55H548.189C555.189 205.55 559.689 210.35 559.689 216.65C559.689 221.45 557.039 225.1 552.689 226.65L559.889 241H551.189ZM542.039 221H546.689C549.939 221 551.689 219.2 551.689 216.7C551.689 214.05 549.939 212.4 546.689 212.4H542.039V221ZM571.441 223.25C571.441 230.65 576.741 233.95 581.691 233.95C586.591 233.95 591.891 230.65 591.891 223.25C591.891 215.85 586.591 212.5 581.691 212.5C576.741 212.5 571.441 215.85 571.441 223.25ZM563.241 223.3C563.241 212.05 571.691 204.8 581.691 204.8C591.641 204.8 600.091 212.05 600.091 223.3C600.091 234.5 591.641 241.75 581.691 241.75C571.691 241.75 563.241 234.5 563.241 223.3ZM613.621 233.55H618.221C623.671 233.55 628.121 230.4 628.121 223.3C628.121 216.2 623.671 213 618.221 213H613.621V233.55ZM618.521 241H605.721V205.55H618.571C629.221 205.55 636.371 212.35 636.371 223.3C636.371 234.25 629.221 241 618.521 241ZM655.75 241.8C647.95 241.8 641.7 237.1 641.7 228.2V205.55H649.6V227.55C649.6 231.85 652 234 655.75 234C659.5 234 661.9 231.85 661.9 227.55V205.55H669.8V228.2C669.8 237.1 663.55 241.8 655.75 241.8ZM693.555 241.75C683.355 241.75 675.155 234.4 675.155 223.35C675.155 212.3 683.555 204.8 693.455 204.8C704.105 204.8 708.805 211.65 709.955 216.75L702.505 219.1C701.955 216.65 699.705 212.5 693.455 212.5C688.705 212.5 683.355 215.9 683.355 223.35C683.355 230 688.255 233.85 693.555 233.85C699.705 233.85 702.155 229.75 702.855 227.2L710.405 229.35C709.255 234.25 704.555 241.75 693.555 241.75ZM742.19 213.1H731.24V241H723.34V213.1H712.44V205.55H742.19V213.1Z" fill="black"/>
<path d="M504.191 271.833L497.991 261.608H501.541L505.791 269.033L510.066 261.608H513.441L507.191 271.833V279.333H504.191V271.833ZM518.54 277.108C520.34 277.108 521.94 275.783 521.94 273.233C521.94 270.708 520.34 269.408 518.54 269.408C516.765 269.408 515.14 270.708 515.14 273.233C515.14 275.758 516.765 277.108 518.54 277.108ZM518.54 266.783C522.19 266.783 524.865 269.508 524.865 273.233C524.865 276.983 522.19 279.708 518.54 279.708C514.915 279.708 512.24 276.983 512.24 273.233C512.24 269.508 514.915 266.783 518.54 266.783ZM535.52 277.983C534.92 279.083 533.495 279.683 532.07 279.683C529.17 279.683 527.47 277.533 527.47 274.833V267.158H530.37V274.308C530.37 275.808 531.07 277.083 532.82 277.083C534.495 277.083 535.37 275.958 535.37 274.358V267.158H538.27V277.108C538.27 278.108 538.345 278.883 538.395 279.333H535.62C535.57 279.058 535.52 278.483 535.52 277.983ZM549.148 267.083V270.033C548.823 269.983 548.498 269.958 548.198 269.958C545.948 269.958 544.923 271.258 544.923 273.533V279.333H542.023V267.158H544.848V269.108C545.423 267.783 546.773 267.008 548.373 267.008C548.723 267.008 549.023 267.058 549.148 267.083ZM560.597 284.083H557.722V267.158H560.522V268.808C561.122 267.758 562.522 266.883 564.397 266.883C567.997 266.883 570.022 269.633 570.022 273.233C570.022 276.883 567.797 279.633 564.297 279.633C562.547 279.633 561.222 278.883 560.597 277.958V284.083ZM567.122 273.233C567.122 270.958 565.797 269.458 563.847 269.458C561.947 269.458 560.572 270.958 560.572 273.233C560.572 275.558 561.947 277.058 563.847 277.058C565.772 277.058 567.122 275.558 567.122 273.233ZM579.935 267.083V270.033C579.61 269.983 579.285 269.958 578.985 269.958C576.735 269.958 575.71 271.258 575.71 273.533V279.333H572.81V267.158H575.635V269.108C576.21 267.783 577.56 267.008 579.16 267.008C579.51 267.008 579.81 267.058 579.935 267.083ZM587.583 277.108C589.383 277.108 590.983 275.783 590.983 273.233C590.983 270.708 589.383 269.408 587.583 269.408C585.808 269.408 584.183 270.708 584.183 273.233C584.183 275.758 585.808 277.108 587.583 277.108ZM587.583 266.783C591.233 266.783 593.908 269.508 593.908 273.233C593.908 276.983 591.233 279.708 587.583 279.708C583.958 279.708 581.283 276.983 581.283 273.233C581.283 269.508 583.958 266.783 587.583 266.783ZM598.661 273.208C598.661 275.533 599.961 277.083 601.936 277.083C603.836 277.083 605.161 275.508 605.161 273.183C605.161 270.858 603.861 269.408 601.961 269.408C600.061 269.408 598.661 270.883 598.661 273.208ZM607.961 261.233V277.108C607.961 278.208 608.061 279.133 608.086 279.333H605.311C605.261 279.058 605.186 278.258 605.186 277.758C604.611 278.783 603.336 279.633 601.611 279.633C598.111 279.633 595.761 276.883 595.761 273.208C595.761 269.708 598.136 266.833 601.561 266.833C603.686 266.833 604.761 267.808 605.136 268.583V261.233H607.961ZM619.602 277.983C619.002 279.083 617.577 279.683 616.152 279.683C613.252 279.683 611.552 277.533 611.552 274.833V267.158H614.452V274.308C614.452 275.808 615.152 277.083 616.902 277.083C618.577 277.083 619.452 275.958 619.452 274.358V267.158H622.352V277.108C622.352 278.108 622.427 278.883 622.477 279.333H619.702C619.652 279.058 619.602 278.483 619.602 277.983ZM631.332 269.458C629.557 269.458 627.982 270.783 627.982 273.233C627.982 275.683 629.557 277.058 631.382 277.058C633.282 277.058 634.157 275.733 634.432 274.808L636.982 275.733C636.407 277.633 634.582 279.708 631.382 279.708C627.807 279.708 625.082 276.933 625.082 273.233C625.082 269.483 627.807 266.783 631.307 266.783C634.582 266.783 636.382 268.833 636.882 270.783L634.282 271.733C634.007 270.658 633.182 269.458 631.332 269.458ZM643.233 263.433V267.158H645.758V269.733H643.233V275.383C643.233 276.458 643.708 276.908 644.783 276.908C645.183 276.908 645.658 276.833 645.783 276.808V279.208C645.608 279.283 645.058 279.483 644.008 279.483C641.758 279.483 640.358 278.133 640.358 275.858V269.733H638.108V267.158H638.733C640.033 267.158 640.608 266.333 640.608 265.258V263.433H643.233ZM661.79 267.158H664.79L667.665 275.583L670.09 267.158H673.04L669.14 279.333H666.24L663.215 270.583L660.265 279.333H657.29L653.34 267.158H656.44L658.915 275.583L661.79 267.158ZM678.126 279.333H675.251V267.158H678.126V279.333ZM674.801 262.883C674.801 261.833 675.651 260.983 676.676 260.983C677.726 260.983 678.576 261.833 678.576 262.883C678.576 263.933 677.726 264.758 676.676 264.758C675.651 264.758 674.801 263.933 674.801 262.883ZM684.767 279.333H681.867V261.233H684.767V279.333ZM691.408 279.333H688.508V261.233H691.408V279.333ZM704.175 279.333H701.35V261.233H704.2V268.658C704.75 267.708 706.15 266.833 708.025 266.833C711.675 266.833 713.65 269.608 713.65 273.183C713.65 276.858 711.475 279.633 707.925 279.633C706.2 279.633 704.875 278.883 704.175 277.708V279.333ZM710.725 273.208C710.725 270.783 709.375 269.408 707.45 269.408C705.6 269.408 704.175 270.783 704.175 273.208C704.175 275.608 705.6 277.058 707.45 277.058C709.35 277.058 710.725 275.608 710.725 273.208ZM718.463 271.908H724.438C724.388 270.483 723.438 269.208 721.438 269.208C719.613 269.208 718.563 270.608 718.463 271.908ZM724.763 275.083L727.213 275.858C726.563 277.983 724.638 279.708 721.713 279.708C718.413 279.708 715.488 277.308 715.488 273.183C715.488 269.333 718.338 266.783 721.413 266.783C725.163 266.783 727.363 269.258 727.363 273.108C727.363 273.583 727.313 273.983 727.288 274.033H718.388C718.463 275.883 719.913 277.208 721.713 277.208C723.463 277.208 724.363 276.283 724.763 275.083ZM506.475 303.908H512.45C512.4 302.483 511.45 301.208 509.45 301.208C507.625 301.208 506.575 302.608 506.475 303.908ZM512.775 307.083L515.225 307.858C514.575 309.983 512.65 311.708 509.725 311.708C506.425 311.708 503.5 309.308 503.5 305.183C503.5 301.333 506.35 298.783 509.425 298.783C513.175 298.783 515.375 301.258 515.375 305.108C515.375 305.583 515.325 305.983 515.3 306.033H506.4C506.475 307.883 507.925 309.208 509.725 309.208C511.475 309.208 512.375 308.283 512.775 307.083ZM516.376 311.333L520.801 305.183L516.451 299.158H519.901C520.126 299.533 522.351 302.708 522.576 303.058L525.226 299.158H528.526L524.251 305.133L528.676 311.333H525.276L522.451 307.258C522.201 307.633 519.926 310.958 519.701 311.333H516.376ZM529.994 308.033C529.994 305.858 531.594 304.658 533.669 304.358L536.794 303.883C537.494 303.783 537.694 303.433 537.694 303.008C537.694 301.983 536.994 301.158 535.394 301.158C533.869 301.158 533.019 302.133 532.894 303.358L530.244 302.758C530.469 300.658 532.369 298.783 535.369 298.783C539.119 298.783 540.544 300.908 540.544 303.333V309.383C540.544 310.483 540.669 311.208 540.694 311.333H537.994C537.969 311.258 537.869 310.758 537.869 309.783C537.294 310.708 536.094 311.708 534.119 311.708C531.569 311.708 529.994 309.958 529.994 308.033ZM534.669 309.433C536.294 309.433 537.694 308.658 537.694 306.283V305.733L534.519 306.208C533.619 306.358 532.894 306.858 532.894 307.858C532.894 308.683 533.519 309.433 534.669 309.433ZM546.925 311.333H544.05V299.158H546.825V300.708C547.525 299.458 549.05 298.808 550.425 298.808C552.025 298.808 553.425 299.533 554.075 300.958C555.025 299.358 556.45 298.808 558.025 298.808C560.225 298.808 562.325 300.208 562.325 303.433V311.333H559.525V303.908C559.525 302.483 558.8 301.408 557.175 301.408C555.65 301.408 554.65 302.608 554.65 304.108V311.333H551.8V303.908C551.8 302.508 551.1 301.408 549.45 301.408C547.9 301.408 546.925 302.558 546.925 304.108V311.333ZM568.751 311.333H565.876V299.158H568.751V311.333ZM565.426 294.883C565.426 293.833 566.276 292.983 567.301 292.983C568.351 292.983 569.201 293.833 569.201 294.883C569.201 295.933 568.351 296.758 567.301 296.758C566.276 296.758 565.426 295.933 565.426 294.883ZM575.392 304.308V311.333H572.492V299.158H575.317V300.783C576.117 299.383 577.567 298.808 578.917 298.808C581.892 298.808 583.317 300.958 583.317 303.633V311.333H580.417V304.133C580.417 302.633 579.742 301.433 577.917 301.433C576.267 301.433 575.392 302.708 575.392 304.308ZM588.873 303.908H594.848C594.798 302.483 593.848 301.208 591.848 301.208C590.023 301.208 588.973 302.608 588.873 303.908ZM595.173 307.083L597.623 307.858C596.973 309.983 595.048 311.708 592.123 311.708C588.823 311.708 585.898 309.308 585.898 305.183C585.898 301.333 588.748 298.783 591.823 298.783C595.573 298.783 597.773 301.258 597.773 305.108C597.773 305.583 597.723 305.983 597.698 306.033H588.798C588.873 307.883 590.323 309.208 592.123 309.208C593.873 309.208 594.773 308.283 595.173 307.083ZM602.494 305.208C602.494 307.533 603.794 309.083 605.769 309.083C607.669 309.083 608.994 307.508 608.994 305.183C608.994 302.858 607.694 301.408 605.794 301.408C603.894 301.408 602.494 302.883 602.494 305.208ZM611.794 293.233V309.108C611.794 310.208 611.894 311.133 611.919 311.333H609.144C609.094 311.058 609.019 310.258 609.019 309.758C608.444 310.783 607.169 311.633 605.444 311.633C601.944 311.633 599.594 308.883 599.594 305.208C599.594 301.708 601.969 298.833 605.394 298.833C607.519 298.833 608.594 299.808 608.969 300.583V293.233H611.794ZM624.609 311.333H621.784V293.233H624.634V300.658C625.184 299.708 626.584 298.833 628.459 298.833C632.109 298.833 634.084 301.608 634.084 305.183C634.084 308.858 631.909 311.633 628.359 311.633C626.634 311.633 625.309 310.883 624.609 309.708V311.333ZM631.159 305.208C631.159 302.783 629.809 301.408 627.884 301.408C626.034 301.408 624.609 302.783 624.609 305.208C624.609 307.608 626.034 309.058 627.884 309.058C629.784 309.058 631.159 307.608 631.159 305.208ZM636.122 308.033C636.122 305.858 637.722 304.658 639.797 304.358L642.922 303.883C643.622 303.783 643.822 303.433 643.822 303.008C643.822 301.983 643.122 301.158 641.522 301.158C639.997 301.158 639.147 302.133 639.022 303.358L636.372 302.758C636.597 300.658 638.497 298.783 641.497 298.783C645.247 298.783 646.672 300.908 646.672 303.333V309.383C646.672 310.483 646.797 311.208 646.822 311.333H644.122C644.097 311.258 643.997 310.758 643.997 309.783C643.422 310.708 642.222 311.708 640.247 311.708C637.697 311.708 636.122 309.958 636.122 308.033ZM640.797 309.433C642.422 309.433 643.822 308.658 643.822 306.283V305.733L640.647 306.208C639.747 306.358 639.022 306.858 639.022 307.858C639.022 308.683 639.647 309.433 640.797 309.433ZM649.103 308.033L651.628 307.333C651.728 308.433 652.553 309.408 654.103 309.408C655.303 309.408 655.928 308.758 655.928 308.008C655.928 307.358 655.478 306.858 654.503 306.658L652.703 306.258C650.553 305.783 649.428 304.383 649.428 302.708C649.428 300.583 651.378 298.783 653.903 298.783C657.303 298.783 658.403 300.983 658.603 302.183L656.153 302.883C656.053 302.183 655.528 301.058 653.903 301.058C652.878 301.058 652.153 301.708 652.153 302.458C652.153 303.108 652.628 303.583 653.378 303.733L655.228 304.108C657.528 304.608 658.728 306.008 658.728 307.808C658.728 309.658 657.228 311.708 654.128 311.708C650.603 311.708 649.253 309.408 649.103 308.033ZM663.555 303.908H669.53C669.48 302.483 668.53 301.208 666.53 301.208C664.705 301.208 663.655 302.608 663.555 303.908ZM669.855 307.083L672.305 307.858C671.655 309.983 669.73 311.708 666.805 311.708C663.505 311.708 660.58 309.308 660.58 305.183C660.58 301.333 663.43 298.783 666.505 298.783C670.255 298.783 672.455 301.258 672.455 305.108C672.455 305.583 672.405 305.983 672.38 306.033H663.48C663.555 307.883 665.005 309.208 666.805 309.208C668.555 309.208 669.455 308.283 669.855 307.083ZM677.177 305.208C677.177 307.533 678.477 309.083 680.452 309.083C682.352 309.083 683.677 307.508 683.677 305.183C683.677 302.858 682.377 301.408 680.477 301.408C678.577 301.408 677.177 302.883 677.177 305.208ZM686.477 293.233V309.108C686.477 310.208 686.577 311.133 686.602 311.333H683.827C683.777 311.058 683.702 310.258 683.702 309.758C683.127 310.783 681.852 311.633 680.127 311.633C676.627 311.633 674.277 308.883 674.277 305.208C674.277 301.708 676.652 298.833 680.077 298.833C682.202 298.833 683.277 299.808 683.652 300.583V293.233H686.477ZM701.817 309.108C703.617 309.108 705.217 307.783 705.217 305.233C705.217 302.708 703.617 301.408 701.817 301.408C700.042 301.408 698.417 302.708 698.417 305.233C698.417 307.758 700.042 309.108 701.817 309.108ZM701.817 298.783C705.467 298.783 708.142 301.508 708.142 305.233C708.142 308.983 705.467 311.708 701.817 311.708C698.192 311.708 695.517 308.983 695.517 305.233C695.517 301.508 698.192 298.783 701.817 298.783ZM713.844 304.308V311.333H710.944V299.158H713.769V300.783C714.569 299.383 716.019 298.808 717.369 298.808C720.344 298.808 721.769 300.958 721.769 303.633V311.333H718.869V304.133C718.869 302.633 718.194 301.433 716.369 301.433C714.719 301.433 713.844 302.708 713.844 304.308ZM489.039 343.333H486.164V331.158H489.039V343.333ZM485.714 326.883C485.714 325.833 486.564 324.983 487.589 324.983C488.639 324.983 489.489 325.833 489.489 326.883C489.489 327.933 488.639 328.758 487.589 328.758C486.564 328.758 485.714 327.933 485.714 326.883ZM496.455 327.433V331.158H498.98V333.733H496.455V339.383C496.455 340.458 496.93 340.908 498.005 340.908C498.405 340.908 498.88 340.833 499.005 340.808V343.208C498.83 343.283 498.28 343.483 497.23 343.483C494.98 343.483 493.58 342.133 493.58 339.858V333.733H491.33V331.158H491.955C493.255 331.158 493.83 330.333 493.83 329.258V327.433H496.455ZM501.08 340.033L503.605 339.333C503.705 340.433 504.53 341.408 506.08 341.408C507.28 341.408 507.905 340.758 507.905 340.008C507.905 339.358 507.455 338.858 506.48 338.658L504.68 338.258C502.53 337.783 501.405 336.383 501.405 334.708C501.405 332.583 503.355 330.783 505.88 330.783C509.28 330.783 510.38 332.983 510.58 334.183L508.13 334.883C508.03 334.183 507.505 333.058 505.88 333.058C504.855 333.058 504.13 333.708 504.13 334.458C504.13 335.108 504.605 335.583 505.355 335.733L507.205 336.108C509.505 336.608 510.705 338.008 510.705 339.808C510.705 341.658 509.205 343.708 506.105 343.708C502.58 343.708 501.23 341.408 501.08 340.033ZM523.082 343.333H520.032V325.608H523.082V343.333ZM529.957 343.333H527.082V331.158H529.857V332.708C530.557 331.458 532.082 330.808 533.457 330.808C535.057 330.808 536.457 331.533 537.107 332.958C538.057 331.358 539.482 330.808 541.057 330.808C543.257 330.808 545.357 332.208 545.357 335.433V343.333H542.557V335.908C542.557 334.483 541.832 333.408 540.207 333.408C538.682 333.408 537.682 334.608 537.682 336.108V343.333H534.832V335.908C534.832 334.508 534.132 333.408 532.482 333.408C530.932 333.408 529.957 334.558 529.957 336.108V343.333ZM551.783 348.083H548.908V331.158H551.708V332.808C552.308 331.758 553.708 330.883 555.583 330.883C559.183 330.883 561.208 333.633 561.208 337.233C561.208 340.883 558.983 343.633 555.483 343.633C553.733 343.633 552.408 342.883 551.783 341.958V348.083ZM558.308 337.233C558.308 334.958 556.983 333.458 555.033 333.458C553.133 333.458 551.758 334.958 551.758 337.233C551.758 339.558 553.133 341.058 555.033 341.058C556.958 341.058 558.308 339.558 558.308 337.233ZM569.346 341.108C571.146 341.108 572.746 339.783 572.746 337.233C572.746 334.708 571.146 333.408 569.346 333.408C567.571 333.408 565.946 334.708 565.946 337.233C565.946 339.758 567.571 341.108 569.346 341.108ZM569.346 330.783C572.996 330.783 575.671 333.508 575.671 337.233C575.671 340.983 572.996 343.708 569.346 343.708C565.721 343.708 563.046 340.983 563.046 337.233C563.046 333.508 565.721 330.783 569.346 330.783ZM585.599 331.083V334.033C585.274 333.983 584.949 333.958 584.649 333.958C582.399 333.958 581.374 335.258 581.374 337.533V343.333H578.474V331.158H581.299V333.108C581.874 331.783 583.224 331.008 584.824 331.008C585.174 331.008 585.474 331.058 585.599 331.083ZM592.232 327.433V331.158H594.757V333.733H592.232V339.383C592.232 340.458 592.707 340.908 593.782 340.908C594.182 340.908 594.657 340.833 594.782 340.808V343.208C594.607 343.283 594.057 343.483 593.007 343.483C590.757 343.483 589.357 342.133 589.357 339.858V333.733H587.107V331.158H587.732C589.032 331.158 589.607 330.333 589.607 329.258V327.433H592.232ZM597.011 340.033C597.011 337.858 598.611 336.658 600.686 336.358L603.811 335.883C604.511 335.783 604.711 335.433 604.711 335.008C604.711 333.983 604.011 333.158 602.411 333.158C600.886 333.158 600.036 334.133 599.911 335.358L597.261 334.758C597.486 332.658 599.386 330.783 602.386 330.783C606.136 330.783 607.561 332.908 607.561 335.333V341.383C607.561 342.483 607.686 343.208 607.711 343.333H605.011C604.986 343.258 604.886 342.758 604.886 341.783C604.311 342.708 603.111 343.708 601.136 343.708C598.586 343.708 597.011 341.958 597.011 340.033ZM601.686 341.433C603.311 341.433 604.711 340.658 604.711 338.283V337.733L601.536 338.208C600.636 338.358 599.911 338.858 599.911 339.858C599.911 340.683 600.536 341.433 601.686 341.433ZM613.966 336.308V343.333H611.066V331.158H613.891V332.783C614.691 331.383 616.141 330.808 617.491 330.808C620.466 330.808 621.891 332.958 621.891 335.633V343.333H618.991V336.133C618.991 334.633 618.316 333.433 616.491 333.433C614.841 333.433 613.966 334.708 613.966 336.308ZM630.722 333.458C628.947 333.458 627.372 334.783 627.372 337.233C627.372 339.683 628.947 341.058 630.772 341.058C632.672 341.058 633.547 339.733 633.822 338.808L636.372 339.733C635.797 341.633 633.972 343.708 630.772 343.708C627.197 343.708 624.472 340.933 624.472 337.233C624.472 333.483 627.197 330.783 630.697 330.783C633.972 330.783 635.772 332.833 636.272 334.783L633.672 335.733C633.397 334.658 632.572 333.458 630.722 333.458ZM640.85 335.908H646.825C646.775 334.483 645.825 333.208 643.825 333.208C642 333.208 640.95 334.608 640.85 335.908ZM647.15 339.083L649.6 339.858C648.95 341.983 647.025 343.708 644.1 343.708C640.8 343.708 637.875 341.308 637.875 337.183C637.875 333.333 640.725 330.783 643.8 330.783C647.55 330.783 649.75 333.258 649.75 337.108C649.75 337.583 649.7 337.983 649.675 338.033H640.775C640.85 339.883 642.3 341.208 644.1 341.208C645.85 341.208 646.75 340.283 647.15 339.083ZM651.954 341.508C651.954 340.458 652.854 339.608 654.029 339.608C655.354 339.608 656.304 340.658 656.304 342.258C656.304 345.758 653.929 347.233 652.229 347.458V345.983C653.379 345.733 654.429 344.583 654.454 343.283C654.354 343.333 654.179 343.408 653.854 343.408C652.754 343.408 651.954 342.658 651.954 341.508ZM675.198 343.333L671.473 336.333H669.273V343.333H666.248V325.608H673.048C676.473 325.608 678.598 327.983 678.598 330.983C678.598 333.508 677.073 335.433 674.598 336.033L678.598 343.333H675.198ZM669.273 333.683H672.498C674.348 333.683 675.548 332.608 675.548 330.983C675.548 329.333 674.348 328.258 672.498 328.258H669.273V333.683ZM683.16 335.908H689.135C689.085 334.483 688.135 333.208 686.135 333.208C684.31 333.208 683.26 334.608 683.16 335.908ZM689.46 339.083L691.91 339.858C691.26 341.983 689.335 343.708 686.41 343.708C683.11 343.708 680.185 341.308 680.185 337.183C680.185 333.333 683.035 330.783 686.11 330.783C689.86 330.783 692.06 333.258 692.06 337.108C692.06 337.583 692.01 337.983 691.985 338.033H683.085C683.16 339.883 684.61 341.208 686.41 341.208C688.16 341.208 689.06 340.283 689.46 339.083ZM694.081 340.033C694.081 337.858 695.681 336.658 697.756 336.358L700.881 335.883C701.581 335.783 701.781 335.433 701.781 335.008C701.781 333.983 701.081 333.158 699.481 333.158C697.956 333.158 697.106 334.133 696.981 335.358L694.331 334.758C694.556 332.658 696.456 330.783 699.456 330.783C703.206 330.783 704.631 332.908 704.631 335.333V341.383C704.631 342.483 704.756 343.208 704.781 343.333H702.081C702.056 343.258 701.956 342.758 701.956 341.783C701.381 342.708 700.181 343.708 698.206 343.708C695.656 343.708 694.081 341.958 694.081 340.033ZM698.756 341.433C700.381 341.433 701.781 340.658 701.781 338.283V337.733L698.606 338.208C697.706 338.358 696.981 338.858 696.981 339.858C696.981 340.683 697.606 341.433 698.756 341.433ZM713.412 333.458C711.637 333.458 710.062 334.783 710.062 337.233C710.062 339.683 711.637 341.058 713.462 341.058C715.362 341.058 716.237 339.733 716.512 338.808L719.062 339.733C718.487 341.633 716.662 343.708 713.462 343.708C709.887 343.708 707.162 340.933 707.162 337.233C707.162 333.483 709.887 330.783 713.387 330.783C716.662 330.783 718.462 332.833 718.962 334.783L716.362 335.733C716.087 334.658 715.262 333.458 713.412 333.458ZM724.538 336.183V343.333H721.638V325.233H724.538V332.333C725.363 331.258 726.738 330.808 728.013 330.808C731.013 330.808 732.463 332.958 732.463 335.633V343.333H729.563V336.133C729.563 334.633 728.888 333.433 727.063 333.433C725.463 333.433 724.588 334.633 724.538 336.183ZM735.743 341.508C735.743 340.458 736.643 339.608 737.818 339.608C739.143 339.608 740.093 340.658 740.093 342.258C740.093 345.758 737.718 347.233 736.018 347.458V345.983C737.168 345.733 738.218 344.583 738.243 343.283C738.143 343.333 737.968 343.408 737.643 343.408C736.543 343.408 735.743 342.658 735.743 341.508ZM542.641 372.033C542.641 369.858 544.241 368.658 546.316 368.358L549.441 367.883C550.141 367.783 550.341 367.433 550.341 367.008C550.341 365.983 549.641 365.158 548.041 365.158C546.516 365.158 545.666 366.133 545.541 367.358L542.891 366.758C543.116 364.658 545.016 362.783 548.016 362.783C551.766 362.783 553.191 364.908 553.191 367.333V373.383C553.191 374.483 553.316 375.208 553.341 375.333H550.641C550.616 375.258 550.516 374.758 550.516 373.783C549.941 374.708 548.741 375.708 546.766 375.708C544.216 375.708 542.641 373.958 542.641 372.033ZM547.316 373.433C548.941 373.433 550.341 372.658 550.341 370.283V369.733L547.166 370.208C546.266 370.358 545.541 370.858 545.541 371.858C545.541 372.683 546.166 373.433 547.316 373.433ZM559.596 368.308V375.333H556.696V363.158H559.521V364.783C560.321 363.383 561.771 362.808 563.121 362.808C566.096 362.808 567.521 364.958 567.521 367.633V375.333H564.621V368.133C564.621 366.633 563.946 365.433 562.121 365.433C560.471 365.433 559.596 366.708 559.596 368.308ZM573.002 369.208C573.002 371.533 574.302 373.083 576.277 373.083C578.177 373.083 579.502 371.508 579.502 369.183C579.502 366.858 578.202 365.408 576.302 365.408C574.402 365.408 573.002 366.883 573.002 369.208ZM582.302 357.233V373.108C582.302 374.208 582.402 375.133 582.427 375.333H579.652C579.602 375.058 579.527 374.258 579.527 373.758C578.952 374.783 577.677 375.633 575.952 375.633C572.452 375.633 570.102 372.883 570.102 369.208C570.102 365.708 572.477 362.833 575.902 362.833C578.027 362.833 579.102 363.808 579.477 364.583V357.233H582.302ZM607.417 375.333H604.292L595.542 361.908V375.333H592.542V357.608H596.367L604.417 370.183V357.608H607.417V375.333ZM616.709 373.108C618.509 373.108 620.109 371.783 620.109 369.233C620.109 366.708 618.509 365.408 616.709 365.408C614.934 365.408 613.309 366.708 613.309 369.233C613.309 371.758 614.934 373.108 616.709 373.108ZM616.709 362.783C620.359 362.783 623.034 365.508 623.034 369.233C623.034 372.983 620.359 375.708 616.709 375.708C613.084 375.708 610.409 372.983 610.409 369.233C610.409 365.508 613.084 362.783 616.709 362.783ZM636.471 363.158L631.696 375.333H628.796L623.846 363.158H627.046L630.271 371.858L633.421 363.158H636.471ZM640.264 367.908H646.239C646.189 366.483 645.239 365.208 643.239 365.208C641.414 365.208 640.364 366.608 640.264 367.908ZM646.564 371.083L649.014 371.858C648.364 373.983 646.439 375.708 643.514 375.708C640.214 375.708 637.289 373.308 637.289 369.183C637.289 365.333 640.139 362.783 643.214 362.783C646.964 362.783 649.164 365.258 649.164 369.108C649.164 369.583 649.114 369.983 649.089 370.033H640.189C640.264 371.883 641.714 373.208 643.514 373.208C645.264 373.208 646.164 372.283 646.564 371.083ZM654.836 375.333H651.936V357.233H654.836V375.333ZM662.251 359.433V363.158H664.776V365.733H662.251V371.383C662.251 372.458 662.726 372.908 663.801 372.908C664.201 372.908 664.676 372.833 664.801 372.808V375.208C664.626 375.283 664.076 375.483 663.026 375.483C660.776 375.483 659.376 374.133 659.376 371.858V365.733H657.126V363.158H657.751C659.051 363.158 659.626 362.333 659.626 361.258V359.433H662.251ZM671.651 380.258H668.551L671.476 373.883L666.276 363.158H669.551L673.051 370.858L676.326 363.158H679.401L671.651 380.258ZM678.762 373.458C678.762 372.333 679.662 371.408 680.787 371.408C681.912 371.408 682.837 372.333 682.837 373.458C682.837 374.583 681.912 375.483 680.787 375.483C679.662 375.483 678.762 374.583 678.762 373.458Z" fill="#6E6E6E"/>
<path opacity="0.3" d="M1210.53 91.1753C1209.69 92.9888 1209.44 95.0004 1209.81 96.9509C1210.18 98.9013 1211.16 100.701 1212.62 102.118L1213 102.479C1214.18 103.596 1215.12 104.922 1215.75 106.382C1216.39 107.842 1216.72 109.406 1216.72 110.987C1216.72 112.567 1216.39 114.132 1215.75 115.591C1215.12 117.051 1214.18 118.377 1213 119.494C1211.83 120.612 1210.43 121.499 1208.89 122.104C1207.35 122.71 1205.71 123.021 1204.04 123.021C1202.38 123.021 1200.73 122.71 1199.19 122.104C1197.65 121.499 1196.26 120.612 1195.08 119.494L1194.7 119.134C1193.21 117.747 1191.31 116.818 1189.26 116.464C1187.2 116.11 1185.08 116.349 1183.17 117.149C1181.3 117.912 1179.7 119.177 1178.58 120.79C1177.45 122.403 1176.85 124.294 1176.84 126.228V127.25C1176.84 130.44 1175.51 133.498 1173.13 135.753C1170.75 138.009 1167.53 139.275 1164.17 139.275C1160.81 139.275 1157.59 138.009 1155.22 135.753C1152.84 133.498 1151.51 130.44 1151.51 127.25V126.709C1151.46 124.719 1150.78 122.789 1149.56 121.17C1148.34 119.551 1146.63 118.318 1144.67 117.63C1142.76 116.83 1140.64 116.591 1138.58 116.945C1136.53 117.299 1134.63 118.228 1133.14 119.615L1132.76 119.975C1131.58 121.093 1130.19 121.98 1128.65 122.585C1127.11 123.191 1125.46 123.502 1123.8 123.502C1122.13 123.502 1120.49 123.191 1118.95 122.585C1117.41 121.98 1116.01 121.093 1114.84 119.975C1113.66 118.859 1112.72 117.532 1112.09 116.072C1111.45 114.613 1111.12 113.048 1111.12 111.468C1111.12 109.887 1111.45 108.323 1112.09 106.863C1112.72 105.403 1113.66 104.077 1114.84 102.96L1115.22 102.599C1116.68 101.182 1117.66 99.3823 1118.03 97.4319C1118.4 95.4814 1118.15 93.4698 1117.31 91.6563C1116.5 89.878 1115.17 88.3614 1113.47 87.2931C1111.77 86.2248 1109.78 85.6515 1107.74 85.6438H1106.67C1103.31 85.6438 1100.09 84.3769 1097.71 82.1217C1095.33 79.8666 1094 76.808 1094 73.6188C1094 70.4295 1095.33 67.3709 1097.71 65.1158C1100.09 62.8606 1103.31 61.5937 1106.67 61.5937H1107.24C1109.33 61.5472 1111.37 60.903 1113.07 59.7449C1114.78 58.5869 1116.08 56.9685 1116.8 55.1002C1117.64 53.2867 1117.89 51.2751 1117.52 49.3246C1117.15 47.3742 1116.17 45.5744 1114.71 44.1574L1114.33 43.7966C1113.15 42.6798 1112.22 41.3536 1111.58 39.8938C1110.94 38.434 1110.62 36.8692 1110.62 35.2889C1110.62 33.7086 1110.94 32.1439 1111.58 30.684C1112.22 29.2242 1113.15 27.898 1114.33 26.7812C1115.51 25.6632 1116.9 24.7762 1118.44 24.171C1119.98 23.5659 1121.63 23.2544 1123.29 23.2544C1124.96 23.2544 1126.6 23.5659 1128.14 24.171C1129.68 24.7762 1131.08 25.6632 1132.25 26.7812L1132.63 27.142C1134.13 28.5281 1136.02 29.4579 1138.08 29.8115C1140.13 30.1652 1142.25 29.9264 1144.16 29.1261H1144.67C1146.54 28.3639 1148.14 27.0984 1149.26 25.4853C1150.39 23.8722 1150.99 21.9819 1151 20.0472V19.025C1151 15.8358 1152.33 12.7772 1154.71 10.5221C1157.09 8.26692 1160.31 7 1163.67 7C1167.03 7 1170.25 8.26692 1172.62 10.5221C1175 12.7772 1176.33 15.8358 1176.33 19.025V19.5662C1176.34 21.5009 1176.95 23.3912 1178.07 25.0043C1179.2 26.6174 1180.79 27.8829 1182.67 28.6451C1184.58 29.4454 1186.7 29.6842 1188.75 29.3305C1190.8 28.9769 1192.7 28.0471 1194.19 26.6609L1194.57 26.3002C1195.75 25.1822 1197.15 24.2952 1198.68 23.69C1200.22 23.0849 1201.87 22.7734 1203.53 22.7734C1205.2 22.7734 1206.85 23.0849 1208.39 23.69C1209.92 24.2952 1211.32 25.1822 1212.5 26.3002C1213.67 27.417 1214.61 28.7432 1215.25 30.203C1215.88 31.6629 1216.21 33.2276 1216.21 34.8079C1216.21 36.3882 1215.88 37.953 1215.25 39.4128C1214.61 40.8726 1213.67 42.1988 1212.5 43.3156L1212.12 43.6764C1210.66 45.0934 1209.68 46.8932 1209.3 48.8436C1208.93 50.7941 1209.18 52.8057 1210.03 54.6192V55.1002C1210.83 56.8785 1212.16 58.3951 1213.86 59.4634C1215.56 60.5317 1217.55 61.105 1219.59 61.1127H1220.67C1224.03 61.1127 1227.25 62.3796 1229.62 64.6348C1232 66.8899 1233.33 69.9485 1233.33 73.1377C1233.33 76.327 1232 79.3856 1229.62 81.6407C1227.25 83.8959 1224.03 85.1628 1220.67 85.1628H1220.1C1218.06 85.1705 1216.07 85.7438 1214.37 86.8121C1212.67 87.8804 1211.34 89.397 1210.53 91.1753Z" stroke="black" stroke-width="12.6667" stroke-linecap="round" stroke-linejoin="round"/>
<path d="M900.618 195H881.268V164.513H900.575V170.92H888.062V176.725H899.414V182.702H888.062V188.55H900.618V195ZM932.825 195H925.644L913.088 174.962V195H906.337V164.513H914.593L926.031 183.046V164.513H932.825V195ZM967.55 195H962.046L961.616 191.904C960.283 193.839 957.402 195.645 953.059 195.645C944.588 195.645 937.622 189.41 937.622 179.778C937.622 170.189 944.889 163.868 953.489 163.868C962.218 163.868 966.26 169.028 967.593 173.285L961.057 175.564C960.584 173.672 958.563 170.232 953.489 170.232C949.361 170.232 944.502 172.984 944.502 179.778C944.502 186.142 948.716 189.453 953.661 189.453C958.692 189.453 960.799 186.185 961.186 184.465H952.027V178.703H967.55V195ZM980.152 195H973.272V164.513H980.152V195ZM1013.24 195H1006.06L993.503 174.962V195H986.752V164.513H995.008L1006.45 183.046V164.513H1013.24V195ZM1039.15 195H1019.8V164.513H1039.11V170.92H1026.59V176.725H1037.95V182.702H1026.59V188.55H1039.15V195ZM1064.22 195H1044.87V164.513H1064.18V170.92H1051.66V176.725H1063.02V182.702H1051.66V188.55H1064.22V195ZM1084.6 195L1079.14 183.648H1076.73V195H1069.94V164.513H1082.02C1088.04 164.513 1091.91 168.641 1091.91 174.059C1091.91 178.187 1089.63 181.326 1085.89 182.659L1092.08 195H1084.6ZM1076.73 177.8H1080.73C1083.53 177.8 1085.03 176.252 1085.03 174.102C1085.03 171.823 1083.53 170.404 1080.73 170.404H1076.73V177.8ZM1103.82 195H1096.94V164.513H1103.82V195ZM1136.91 195H1129.73L1117.17 174.962V195H1110.42V164.513H1118.67L1130.11 183.046V164.513H1136.91V195ZM1171.63 195H1166.13L1165.7 191.904C1164.36 193.839 1161.48 195.645 1157.14 195.645C1148.67 195.645 1141.7 189.41 1141.7 179.778C1141.7 170.189 1148.97 163.868 1157.57 163.868C1166.3 163.868 1170.34 169.028 1171.67 173.285L1165.14 175.564C1164.67 173.672 1162.64 170.232 1157.57 170.232C1153.44 170.232 1148.58 172.984 1148.58 179.778C1148.58 186.142 1152.8 189.453 1157.74 189.453C1162.77 189.453 1164.88 186.185 1165.27 184.465H1156.11V178.703H1171.63V195Z" fill="black"/>
<path d="M918.095 249H907.145V231.275H918.095V234.075H910.145V238.775H917.345V241.5H910.145V246.2H918.095V249ZM924.101 241.975V249H921.201V236.825H924.026V238.45C924.826 237.05 926.276 236.475 927.626 236.475C930.601 236.475 932.026 238.625 932.026 241.3V249H929.126V241.8C929.126 240.3 928.451 239.1 926.626 239.1C924.976 239.1 924.101 240.375 924.101 241.975ZM934.682 249.675L937.357 248.975C937.557 250.475 938.732 251.6 940.407 251.6C942.707 251.6 943.857 250.425 943.857 247.95V246.675C943.332 247.625 942.107 248.45 940.332 248.45C937.082 248.45 934.707 245.95 934.707 242.525C934.707 239.275 936.982 236.6 940.332 236.6C942.232 236.6 943.407 237.375 943.932 238.375V236.825H946.732V247.85C946.732 251.1 945.057 254.125 940.482 254.125C937.257 254.125 935.007 252.125 934.682 249.675ZM940.807 245.975C942.657 245.975 943.932 244.625 943.932 242.525C943.932 240.45 942.607 239.1 940.807 239.1C938.957 239.1 937.632 240.45 937.632 242.525C937.632 244.65 938.907 245.975 940.807 245.975ZM953.153 249H950.278V236.825H953.153V249ZM949.828 232.55C949.828 231.5 950.678 230.65 951.703 230.65C952.753 230.65 953.603 231.5 953.603 232.55C953.603 233.6 952.753 234.425 951.703 234.425C950.678 234.425 949.828 233.6 949.828 232.55ZM959.795 241.975V249H956.895V236.825H959.72V238.45C960.52 237.05 961.97 236.475 963.32 236.475C966.295 236.475 967.72 238.625 967.72 241.3V249H964.82V241.8C964.82 240.3 964.145 239.1 962.32 239.1C960.67 239.1 959.795 240.375 959.795 241.975ZM973.275 241.575H979.25C979.2 240.15 978.25 238.875 976.25 238.875C974.425 238.875 973.375 240.275 973.275 241.575ZM979.575 244.75L982.025 245.525C981.375 247.65 979.45 249.375 976.525 249.375C973.225 249.375 970.3 246.975 970.3 242.85C970.3 239 973.15 236.45 976.225 236.45C979.975 236.45 982.175 238.925 982.175 242.775C982.175 243.25 982.125 243.65 982.1 243.7H973.2C973.275 245.55 974.725 246.875 976.525 246.875C978.275 246.875 979.175 245.95 979.575 244.75ZM986.971 241.575H992.946C992.896 240.15 991.946 238.875 989.946 238.875C988.121 238.875 987.071 240.275 986.971 241.575ZM993.271 244.75L995.721 245.525C995.071 247.65 993.146 249.375 990.221 249.375C986.921 249.375 983.996 246.975 983.996 242.85C983.996 239 986.846 236.45 989.921 236.45C993.671 236.45 995.871 238.925 995.871 242.775C995.871 243.25 995.821 243.65 995.796 243.7H986.896C986.971 245.55 988.421 246.875 990.221 246.875C991.971 246.875 992.871 245.95 993.271 244.75ZM1005.77 236.75V239.7C1005.44 239.65 1005.12 239.625 1004.82 239.625C1002.57 239.625 1001.54 240.925 1001.54 243.2V249H998.643V236.825H1001.47V238.775C1002.04 237.45 1003.39 236.675 1004.99 236.675C1005.34 236.675 1005.64 236.725 1005.77 236.75ZM1011.06 249H1008.19V236.825H1011.06V249ZM1007.74 232.55C1007.74 231.5 1008.59 230.65 1009.61 230.65C1010.66 230.65 1011.51 231.5 1011.51 232.55C1011.51 233.6 1010.66 234.425 1009.61 234.425C1008.59 234.425 1007.74 233.6 1007.74 232.55ZM1017.7 241.975V249H1014.8V236.825H1017.63V238.45C1018.43 237.05 1019.88 236.475 1021.23 236.475C1024.2 236.475 1025.63 238.625 1025.63 241.3V249H1022.73V241.8C1022.73 240.3 1022.05 239.1 1020.23 239.1C1018.58 239.1 1017.7 240.375 1017.7 241.975ZM1028.29 249.675L1030.96 248.975C1031.16 250.475 1032.34 251.6 1034.01 251.6C1036.31 251.6 1037.46 250.425 1037.46 247.95V246.675C1036.94 247.625 1035.71 248.45 1033.94 248.45C1030.69 248.45 1028.31 245.95 1028.31 242.525C1028.31 239.275 1030.59 236.6 1033.94 236.6C1035.84 236.6 1037.01 237.375 1037.54 238.375V236.825H1040.34V247.85C1040.34 251.1 1038.66 254.125 1034.09 254.125C1030.86 254.125 1028.61 252.125 1028.29 249.675ZM1034.41 245.975C1036.26 245.975 1037.54 244.625 1037.54 242.525C1037.54 240.45 1036.21 239.1 1034.41 239.1C1032.56 239.1 1031.24 240.45 1031.24 242.525C1031.24 244.65 1032.51 245.975 1034.41 245.975ZM1052.96 253.75H1050.08V236.825H1052.88V238.475C1053.48 237.425 1054.88 236.55 1056.76 236.55C1060.36 236.55 1062.38 239.3 1062.38 242.9C1062.38 246.55 1060.16 249.3 1056.66 249.3C1054.91 249.3 1053.58 248.55 1052.96 247.625V253.75ZM1059.48 242.9C1059.48 240.625 1058.16 239.125 1056.21 239.125C1054.31 239.125 1052.93 240.625 1052.93 242.9C1052.93 245.225 1054.31 246.725 1056.21 246.725C1058.13 246.725 1059.48 245.225 1059.48 242.9ZM1072.3 236.75V239.7C1071.97 239.65 1071.65 239.625 1071.35 239.625C1069.1 239.625 1068.07 240.925 1068.07 243.2V249H1065.17V236.825H1068V238.775C1068.57 237.45 1069.92 236.675 1071.52 236.675C1071.87 236.675 1072.17 236.725 1072.3 236.75ZM1079.94 246.775C1081.74 246.775 1083.34 245.45 1083.34 242.9C1083.34 240.375 1081.74 239.075 1079.94 239.075C1078.17 239.075 1076.54 240.375 1076.54 242.9C1076.54 245.425 1078.17 246.775 1079.94 246.775ZM1079.94 236.45C1083.59 236.45 1086.27 239.175 1086.27 242.9C1086.27 246.65 1083.59 249.375 1079.94 249.375C1076.32 249.375 1073.64 246.65 1073.64 242.9C1073.64 239.175 1076.32 236.45 1079.94 236.45ZM1095.68 236.825H1098.68L1101.55 245.25L1103.98 236.825H1106.93L1103.03 249H1100.13L1097.1 240.25L1094.15 249H1091.18L1087.23 236.825H1090.33L1092.8 245.25L1095.68 236.825ZM1110.87 241.575H1116.85C1116.8 240.15 1115.85 238.875 1113.85 238.875C1112.02 238.875 1110.97 240.275 1110.87 241.575ZM1117.17 244.75L1119.62 245.525C1118.97 247.65 1117.05 249.375 1114.12 249.375C1110.82 249.375 1107.9 246.975 1107.9 242.85C1107.9 239 1110.75 236.45 1113.82 236.45C1117.57 236.45 1119.77 238.925 1119.77 242.775C1119.77 243.25 1119.72 243.65 1119.7 243.7H1110.8C1110.87 245.55 1112.32 246.875 1114.12 246.875C1115.87 246.875 1116.77 245.95 1117.17 244.75ZM1121.47 245.7L1123.99 245C1124.09 246.1 1124.92 247.075 1126.47 247.075C1127.67 247.075 1128.29 246.425 1128.29 245.675C1128.29 245.025 1127.84 244.525 1126.87 244.325L1125.07 243.925C1122.92 243.45 1121.79 242.05 1121.79 240.375C1121.79 238.25 1123.74 236.45 1126.27 236.45C1129.67 236.45 1130.77 238.65 1130.97 239.85L1128.52 240.55C1128.42 239.85 1127.89 238.725 1126.27 238.725C1125.24 238.725 1124.52 239.375 1124.52 240.125C1124.52 240.775 1124.99 241.25 1125.74 241.4L1127.59 241.775C1129.89 242.275 1131.09 243.675 1131.09 245.475C1131.09 247.325 1129.59 249.375 1126.49 249.375C1122.97 249.375 1121.62 247.075 1121.47 245.7ZM1132.89 245.7L1135.42 245C1135.52 246.1 1136.34 247.075 1137.89 247.075C1139.09 247.075 1139.72 246.425 1139.72 245.675C1139.72 245.025 1139.27 244.525 1138.29 244.325L1136.49 243.925C1134.34 243.45 1133.22 242.05 1133.22 240.375C1133.22 238.25 1135.17 236.45 1137.69 236.45C1141.09 236.45 1142.19 238.65 1142.39 239.85L1139.94 240.55C1139.84 239.85 1139.32 238.725 1137.69 238.725C1136.67 238.725 1135.94 239.375 1135.94 240.125C1135.94 240.775 1136.42 241.25 1137.17 241.4L1139.02 241.775C1141.32 242.275 1142.52 243.675 1142.52 245.475C1142.52 247.325 1141.02 249.375 1137.92 249.375C1134.39 249.375 1133.04 247.075 1132.89 245.7ZM1158.5 236.825H1161.5L1164.37 245.25L1166.8 236.825H1169.75L1165.85 249H1162.95L1159.92 240.25L1156.97 249H1154L1150.05 236.825H1153.15L1155.62 245.25L1158.5 236.825ZM1174.83 249H1171.96V236.825H1174.83V249ZM1171.51 232.55C1171.51 231.5 1172.36 230.65 1173.38 230.65C1174.43 230.65 1175.28 231.5 1175.28 232.55C1175.28 233.6 1174.43 234.425 1173.38 234.425C1172.36 234.425 1171.51 233.6 1171.51 232.55ZM1181.47 249H1178.57V230.9H1181.47V249ZM1188.11 249H1185.21V230.9H1188.11V249ZM984.06 281H981.235V262.9H984.085V270.325C984.635 269.375 986.035 268.5 987.91 268.5C991.56 268.5 993.535 271.275 993.535 274.85C993.535 278.525 991.36 281.3 987.81 281.3C986.085 281.3 984.76 280.55 984.06 279.375V281ZM990.61 274.875C990.61 272.45 989.26 271.075 987.335 271.075C985.485 271.075 984.06 272.45 984.06 274.875C984.06 277.275 985.485 278.725 987.335 278.725C989.235 278.725 990.61 277.275 990.61 274.875ZM998.348 273.575H1004.32C1004.27 272.15 1003.32 270.875 1001.32 270.875C999.498 270.875 998.448 272.275 998.348 273.575ZM1004.65 276.75L1007.1 277.525C1006.45 279.65 1004.52 281.375 1001.6 281.375C998.298 281.375 995.373 278.975 995.373 274.85C995.373 271 998.223 268.45 1001.3 268.45C1005.05 268.45 1007.25 270.925 1007.25 274.775C1007.25 275.25 1007.2 275.65 1007.17 275.7H998.273C998.348 277.55 999.798 278.875 1001.6 278.875C1003.35 278.875 1004.25 277.95 1004.65 276.75ZM1015.47 277.7C1015.47 275.525 1017.07 274.325 1019.15 274.025L1022.27 273.55C1022.97 273.45 1023.17 273.1 1023.17 272.675C1023.17 271.65 1022.47 270.825 1020.87 270.825C1019.35 270.825 1018.5 271.8 1018.37 273.025L1015.72 272.425C1015.95 270.325 1017.85 268.45 1020.85 268.45C1024.6 268.45 1026.02 270.575 1026.02 273V279.05C1026.02 280.15 1026.15 280.875 1026.17 281H1023.47C1023.45 280.925 1023.35 280.425 1023.35 279.45C1022.77 280.375 1021.57 281.375 1019.6 281.375C1017.05 281.375 1015.47 279.625 1015.47 277.7ZM1020.15 279.1C1021.77 279.1 1023.17 278.325 1023.17 275.95V275.4L1020 275.875C1019.1 276.025 1018.37 276.525 1018.37 277.525C1018.37 278.35 1019 279.1 1020.15 279.1ZM1028.45 277.7L1030.98 277C1031.08 278.1 1031.9 279.075 1033.45 279.075C1034.65 279.075 1035.28 278.425 1035.28 277.675C1035.28 277.025 1034.83 276.525 1033.85 276.325L1032.05 275.925C1029.9 275.45 1028.78 274.05 1028.78 272.375C1028.78 270.25 1030.73 268.45 1033.25 268.45C1036.65 268.45 1037.75 270.65 1037.95 271.85L1035.5 272.55C1035.4 271.85 1034.88 270.725 1033.25 270.725C1032.23 270.725 1031.5 271.375 1031.5 272.125C1031.5 272.775 1031.98 273.25 1032.73 273.4L1034.58 273.775C1036.88 274.275 1038.08 275.675 1038.08 277.475C1038.08 279.325 1036.58 281.375 1033.48 281.375C1029.95 281.375 1028.6 279.075 1028.45 277.7ZM1039.88 277.7L1042.4 277C1042.5 278.1 1043.33 279.075 1044.88 279.075C1046.08 279.075 1046.7 278.425 1046.7 277.675C1046.7 277.025 1046.25 276.525 1045.28 276.325L1043.48 275.925C1041.33 275.45 1040.2 274.05 1040.2 272.375C1040.2 270.25 1042.15 268.45 1044.68 268.45C1048.08 268.45 1049.18 270.65 1049.38 271.85L1046.93 272.55C1046.83 271.85 1046.3 270.725 1044.68 270.725C1043.65 270.725 1042.93 271.375 1042.93 272.125C1042.93 272.775 1043.4 273.25 1044.15 273.4L1046 273.775C1048.3 274.275 1049.5 275.675 1049.5 277.475C1049.5 279.325 1048 281.375 1044.9 281.375C1041.38 281.375 1040.03 279.075 1039.88 277.7ZM1054.33 273.575H1060.3C1060.25 272.15 1059.3 270.875 1057.3 270.875C1055.48 270.875 1054.43 272.275 1054.33 273.575ZM1060.63 276.75L1063.08 277.525C1062.43 279.65 1060.5 281.375 1057.58 281.375C1054.28 281.375 1051.35 278.975 1051.35 274.85C1051.35 271 1054.2 268.45 1057.28 268.45C1061.03 268.45 1063.23 270.925 1063.23 274.775C1063.23 275.25 1063.18 275.65 1063.15 275.7H1054.25C1054.33 277.55 1055.78 278.875 1057.58 278.875C1059.33 278.875 1060.23 277.95 1060.63 276.75ZM1064.93 277.7L1067.45 277C1067.55 278.1 1068.38 279.075 1069.93 279.075C1071.13 279.075 1071.75 278.425 1071.75 277.675C1071.75 277.025 1071.3 276.525 1070.33 276.325L1068.53 275.925C1066.38 275.45 1065.25 274.05 1065.25 272.375C1065.25 270.25 1067.2 268.45 1069.73 268.45C1073.13 268.45 1074.23 270.65 1074.43 271.85L1071.98 272.55C1071.88 271.85 1071.35 270.725 1069.73 270.725C1068.7 270.725 1067.98 271.375 1067.98 272.125C1067.98 272.775 1068.45 273.25 1069.2 273.4L1071.05 273.775C1073.35 274.275 1074.55 275.675 1074.55 277.475C1074.55 279.325 1073.05 281.375 1069.95 281.375C1066.43 281.375 1065.08 279.075 1064.93 277.7ZM1076.35 277.7L1078.88 277C1078.98 278.1 1079.8 279.075 1081.35 279.075C1082.55 279.075 1083.18 278.425 1083.18 277.675C1083.18 277.025 1082.73 276.525 1081.75 276.325L1079.95 275.925C1077.8 275.45 1076.68 274.05 1076.68 272.375C1076.68 270.25 1078.63 268.45 1081.15 268.45C1084.55 268.45 1085.65 270.65 1085.85 271.85L1083.4 272.55C1083.3 271.85 1082.78 270.725 1081.15 270.725C1080.13 270.725 1079.4 271.375 1079.4 272.125C1079.4 272.775 1079.88 273.25 1080.63 273.4L1082.48 273.775C1084.78 274.275 1085.98 275.675 1085.98 277.475C1085.98 279.325 1084.48 281.375 1081.38 281.375C1077.85 281.375 1076.5 279.075 1076.35 277.7ZM1090.8 273.575H1096.78C1096.73 272.15 1095.78 270.875 1093.78 270.875C1091.95 270.875 1090.9 272.275 1090.8 273.575ZM1097.1 276.75L1099.55 277.525C1098.9 279.65 1096.98 281.375 1094.05 281.375C1090.75 281.375 1087.83 278.975 1087.83 274.85C1087.83 271 1090.68 268.45 1093.75 268.45C1097.5 268.45 1099.7 270.925 1099.7 274.775C1099.7 275.25 1099.65 275.65 1099.63 275.7H1090.73C1090.8 277.55 1092.25 278.875 1094.05 278.875C1095.8 278.875 1096.7 277.95 1097.1 276.75ZM1104.43 274.875C1104.43 277.2 1105.73 278.75 1107.7 278.75C1109.6 278.75 1110.93 277.175 1110.93 274.85C1110.93 272.525 1109.63 271.075 1107.73 271.075C1105.83 271.075 1104.43 272.55 1104.43 274.875ZM1113.73 262.9V278.775C1113.73 279.875 1113.83 280.8 1113.85 281H1111.08C1111.03 280.725 1110.95 279.925 1110.95 279.425C1110.38 280.45 1109.1 281.3 1107.38 281.3C1103.88 281.3 1101.53 278.55 1101.53 274.875C1101.53 271.375 1103.9 268.5 1107.33 268.5C1109.45 268.5 1110.53 269.475 1110.9 270.25V262.9H1113.73ZM971.449 310.775C973.249 310.775 974.849 309.45 974.849 306.9C974.849 304.375 973.249 303.075 971.449 303.075C969.674 303.075 968.049 304.375 968.049 306.9C968.049 309.425 969.674 310.775 971.449 310.775ZM971.449 300.45C975.099 300.45 977.774 303.175 977.774 306.9C977.774 310.65 975.099 313.375 971.449 313.375C967.824 313.375 965.149 310.65 965.149 306.9C965.149 303.175 967.824 300.45 971.449 300.45ZM983.476 305.975V313H980.576V300.825H983.401V302.45C984.201 301.05 985.651 300.475 987.001 300.475C989.976 300.475 991.401 302.625 991.401 305.3V313H988.501V305.8C988.501 304.3 987.826 303.1 986.001 303.1C984.351 303.1 983.476 304.375 983.476 305.975ZM1013.03 299.425L1010.33 300.275C1010.16 299.175 1009.23 297.55 1006.86 297.55C1005.06 297.55 1003.81 298.75 1003.81 300.1C1003.81 301.225 1004.51 302.075 1005.88 302.375L1008.43 302.9C1011.56 303.525 1013.23 305.5 1013.23 308C1013.23 310.75 1011.01 313.375 1006.96 313.375C1002.46 313.375 1000.38 310.475 1000.11 307.925L1002.91 307.125C1003.08 308.975 1004.41 310.675 1006.96 310.675C1009.08 310.675 1010.18 309.6 1010.18 308.225C1010.18 307.075 1009.33 306.15 1007.81 305.825L1005.31 305.3C1002.61 304.75 1000.81 302.975 1000.81 300.325C1000.81 297.35 1003.53 294.9 1006.83 294.9C1011.01 294.9 1012.63 297.45 1013.03 299.425ZM1021.28 310.775C1023.08 310.775 1024.68 309.45 1024.68 306.9C1024.68 304.375 1023.08 303.075 1021.28 303.075C1019.5 303.075 1017.88 304.375 1017.88 306.9C1017.88 309.425 1019.5 310.775 1021.28 310.775ZM1021.28 300.45C1024.93 300.45 1027.6 303.175 1027.6 306.9C1027.6 310.65 1024.93 313.375 1021.28 313.375C1017.65 313.375 1014.98 310.65 1014.98 306.9C1014.98 303.175 1017.65 300.45 1021.28 300.45ZM1038.26 311.65C1037.66 312.75 1036.23 313.35 1034.81 313.35C1031.91 313.35 1030.21 311.2 1030.21 308.5V300.825H1033.11V307.975C1033.11 309.475 1033.81 310.75 1035.56 310.75C1037.23 310.75 1038.11 309.625 1038.11 308.025V300.825H1041.01V310.775C1041.01 311.775 1041.08 312.55 1041.13 313H1038.36C1038.31 312.725 1038.26 312.15 1038.26 311.65ZM1047.66 305.975V313H1044.76V300.825H1047.59V302.45C1048.39 301.05 1049.84 300.475 1051.19 300.475C1054.16 300.475 1055.59 302.625 1055.59 305.3V313H1052.69V305.8C1052.69 304.3 1052.01 303.1 1050.19 303.1C1048.54 303.1 1047.66 304.375 1047.66 305.975ZM1061.07 306.875C1061.07 309.2 1062.37 310.75 1064.34 310.75C1066.24 310.75 1067.57 309.175 1067.57 306.85C1067.57 304.525 1066.27 303.075 1064.37 303.075C1062.47 303.075 1061.07 304.55 1061.07 306.875ZM1070.37 294.9V310.775C1070.37 311.875 1070.47 312.8 1070.49 313H1067.72C1067.67 312.725 1067.59 311.925 1067.59 311.425C1067.02 312.45 1065.74 313.3 1064.02 313.3C1060.52 313.3 1058.17 310.55 1058.17 306.875C1058.17 303.375 1060.54 300.5 1063.97 300.5C1066.09 300.5 1067.17 301.475 1067.54 302.25V294.9H1070.37ZM1077.06 305.975V313H1074.16V300.825H1076.98V302.45C1077.78 301.05 1079.23 300.475 1080.58 300.475C1083.56 300.475 1084.98 302.625 1084.98 305.3V313H1082.08V305.8C1082.08 304.3 1081.41 303.1 1079.58 303.1C1077.93 303.1 1077.06 304.375 1077.06 305.975ZM1090.54 305.575H1096.51C1096.46 304.15 1095.51 302.875 1093.51 302.875C1091.69 302.875 1090.64 304.275 1090.54 305.575ZM1096.84 308.75L1099.29 309.525C1098.64 311.65 1096.71 313.375 1093.79 313.375C1090.49 313.375 1087.56 310.975 1087.56 306.85C1087.56 303 1090.41 300.45 1093.49 300.45C1097.24 300.45 1099.44 302.925 1099.44 306.775C1099.44 307.25 1099.39 307.65 1099.36 307.7H1090.46C1090.54 309.55 1091.99 310.875 1093.79 310.875C1095.54 310.875 1096.44 309.95 1096.84 308.75ZM1101.13 309.7L1103.66 309C1103.76 310.1 1104.58 311.075 1106.13 311.075C1107.33 311.075 1107.96 310.425 1107.96 309.675C1107.96 309.025 1107.51 308.525 1106.53 308.325L1104.73 307.925C1102.58 307.45 1101.46 306.05 1101.46 304.375C1101.46 302.25 1103.41 300.45 1105.93 300.45C1109.33 300.45 1110.43 302.65 1110.63 303.85L1108.18 304.55C1108.08 303.85 1107.56 302.725 1105.93 302.725C1104.91 302.725 1104.18 303.375 1104.18 304.125C1104.18 304.775 1104.66 305.25 1105.41 305.4L1107.26 305.775C1109.56 306.275 1110.76 307.675 1110.76 309.475C1110.76 311.325 1109.26 313.375 1106.16 313.375C1102.63 313.375 1101.28 311.075 1101.13 309.7ZM1112.56 309.7L1115.08 309C1115.18 310.1 1116.01 311.075 1117.56 311.075C1118.76 311.075 1119.38 310.425 1119.38 309.675C1119.38 309.025 1118.93 308.525 1117.96 308.325L1116.16 307.925C1114.01 307.45 1112.88 306.05 1112.88 304.375C1112.88 302.25 1114.83 300.45 1117.36 300.45C1120.76 300.45 1121.86 302.65 1122.06 303.85L1119.61 304.55C1119.51 303.85 1118.98 302.725 1117.36 302.725C1116.33 302.725 1115.61 303.375 1115.61 304.125C1115.61 304.775 1116.08 305.25 1116.83 305.4L1118.68 305.775C1120.98 306.275 1122.18 307.675 1122.18 309.475C1122.18 311.325 1120.68 313.375 1117.58 313.375C1114.06 313.375 1112.71 311.075 1112.56 309.7ZM1124.81 311.175C1124.81 310.125 1125.71 309.275 1126.88 309.275C1128.21 309.275 1129.16 310.325 1129.16 311.925C1129.16 315.425 1126.78 316.9 1125.08 317.125V315.65C1126.23 315.4 1127.28 314.25 1127.31 312.95C1127.21 313 1127.03 313.075 1126.71 313.075C1125.61 313.075 1124.81 312.325 1124.81 311.175ZM959.734 345.375C954.959 345.375 950.784 341.925 950.784 336.15C950.784 330.375 955.109 326.9 959.709 326.9C964.209 326.9 966.884 329.55 967.684 332.65L964.859 333.6C964.334 331.45 962.684 329.725 959.709 329.725C956.784 329.725 953.859 331.85 953.859 336.15C953.859 340.3 956.709 342.5 959.734 342.5C962.709 342.5 964.409 340.6 965.009 338.6L967.759 339.5C966.959 342.5 964.259 345.375 959.734 345.375ZM975.465 342.775C977.265 342.775 978.865 341.45 978.865 338.9C978.865 336.375 977.265 335.075 975.465 335.075C973.69 335.075 972.065 336.375 972.065 338.9C972.065 341.425 973.69 342.775 975.465 342.775ZM975.465 332.45C979.115 332.45 981.79 335.175 981.79 338.9C981.79 342.65 979.115 345.375 975.465 345.375C971.84 345.375 969.165 342.65 969.165 338.9C969.165 335.175 971.84 332.45 975.465 332.45ZM991.717 332.75V335.7C991.392 335.65 991.067 335.625 990.767 335.625C988.517 335.625 987.492 336.925 987.492 339.2V345H984.592V332.825H987.417V334.775C987.992 333.45 989.342 332.675 990.942 332.675C991.292 332.675 991.592 332.725 991.717 332.75ZM1001.26 332.75V335.7C1000.94 335.65 1000.61 335.625 1000.31 335.625C998.063 335.625 997.038 336.925 997.038 339.2V345H994.138V332.825H996.963V334.775C997.538 333.45 998.888 332.675 1000.49 332.675C1000.84 332.675 1001.14 332.725 1001.26 332.75ZM1005.59 337.575H1011.56C1011.51 336.15 1010.56 334.875 1008.56 334.875C1006.74 334.875 1005.69 336.275 1005.59 337.575ZM1011.89 340.75L1014.34 341.525C1013.69 343.65 1011.76 345.375 1008.84 345.375C1005.54 345.375 1002.61 342.975 1002.61 338.85C1002.61 335 1005.46 332.45 1008.54 332.45C1012.29 332.45 1014.49 334.925 1014.49 338.775C1014.49 339.25 1014.44 339.65 1014.41 339.7H1005.51C1005.59 341.55 1007.04 342.875 1008.84 342.875C1010.59 342.875 1011.49 341.95 1011.89 340.75ZM1022.56 335.125C1020.78 335.125 1019.21 336.45 1019.21 338.9C1019.21 341.35 1020.78 342.725 1022.61 342.725C1024.51 342.725 1025.38 341.4 1025.66 340.475L1028.21 341.4C1027.63 343.3 1025.81 345.375 1022.61 345.375C1019.03 345.375 1016.31 342.6 1016.31 338.9C1016.31 335.15 1019.03 332.45 1022.53 332.45C1025.81 332.45 1027.61 334.5 1028.11 336.45L1025.51 337.4C1025.23 336.325 1024.41 335.125 1022.56 335.125ZM1034.46 329.1V332.825H1036.98V335.4H1034.46V341.05C1034.46 342.125 1034.93 342.575 1036.01 342.575C1036.41 342.575 1036.88 342.5 1037.01 342.475V344.875C1036.83 344.95 1036.28 345.15 1035.23 345.15C1032.98 345.15 1031.58 343.8 1031.58 341.525V335.4H1029.33V332.825H1029.96C1031.26 332.825 1031.83 332 1031.83 330.925V329.1H1034.46ZM1042.64 337.975V345H1039.74V332.825H1042.57V334.45C1043.37 333.05 1044.82 332.475 1046.17 332.475C1049.14 332.475 1050.57 334.625 1050.57 337.3V345H1047.67V337.8C1047.67 336.3 1046.99 335.1 1045.17 335.1C1043.52 335.1 1042.64 336.375 1042.64 337.975ZM1056.12 337.575H1062.1C1062.05 336.15 1061.1 334.875 1059.1 334.875C1057.27 334.875 1056.22 336.275 1056.12 337.575ZM1062.42 340.75L1064.87 341.525C1064.22 343.65 1062.3 345.375 1059.37 345.375C1056.07 345.375 1053.15 342.975 1053.15 338.85C1053.15 335 1056 332.45 1059.07 332.45C1062.82 332.45 1065.02 334.925 1065.02 338.775C1065.02 339.25 1064.97 339.65 1064.95 339.7H1056.05C1056.12 341.55 1057.57 342.875 1059.37 342.875C1061.12 342.875 1062.02 341.95 1062.42 340.75ZM1066.72 341.7L1069.25 341C1069.35 342.1 1070.17 343.075 1071.72 343.075C1072.92 343.075 1073.55 342.425 1073.55 341.675C1073.55 341.025 1073.1 340.525 1072.12 340.325L1070.32 339.925C1068.17 339.45 1067.05 338.05 1067.05 336.375C1067.05 334.25 1069 332.45 1071.52 332.45C1074.92 332.45 1076.02 334.65 1076.22 335.85L1073.77 336.55C1073.67 335.85 1073.15 334.725 1071.52 334.725C1070.5 334.725 1069.77 335.375 1069.77 336.125C1069.77 336.775 1070.25 337.25 1071 337.4L1072.85 337.775C1075.15 338.275 1076.35 339.675 1076.35 341.475C1076.35 343.325 1074.85 345.375 1071.75 345.375C1068.22 345.375 1066.87 343.075 1066.72 341.7ZM1078.15 341.7L1080.67 341C1080.77 342.1 1081.6 343.075 1083.15 343.075C1084.35 343.075 1084.97 342.425 1084.97 341.675C1084.97 341.025 1084.52 340.525 1083.55 340.325L1081.75 339.925C1079.6 339.45 1078.47 338.05 1078.47 336.375C1078.47 334.25 1080.42 332.45 1082.95 332.45C1086.35 332.45 1087.45 334.65 1087.65 335.85L1085.2 336.55C1085.1 335.85 1084.57 334.725 1082.95 334.725C1081.92 334.725 1081.2 335.375 1081.2 336.125C1081.2 336.775 1081.67 337.25 1082.42 337.4L1084.27 337.775C1086.57 338.275 1087.77 339.675 1087.77 341.475C1087.77 343.325 1086.27 345.375 1083.17 345.375C1079.65 345.375 1078.3 343.075 1078.15 341.7ZM1090.4 343.175C1090.4 342.125 1091.3 341.275 1092.47 341.275C1093.8 341.275 1094.75 342.325 1094.75 343.925C1094.75 347.425 1092.37 348.9 1090.67 349.125V347.65C1091.82 347.4 1092.87 346.25 1092.9 344.95C1092.8 345 1092.62 345.075 1092.3 345.075C1091.2 345.075 1090.4 344.325 1090.4 343.175ZM1103.69 341.7C1103.69 339.525 1105.29 338.325 1107.37 338.025L1110.49 337.55C1111.19 337.45 1111.39 337.1 1111.39 336.675C1111.39 335.65 1110.69 334.825 1109.09 334.825C1107.57 334.825 1106.72 335.8 1106.59 337.025L1103.94 336.425C1104.17 334.325 1106.07 332.45 1109.07 332.45C1112.82 332.45 1114.24 334.575 1114.24 337V343.05C1114.24 344.15 1114.37 344.875 1114.39 345H1111.69C1111.67 344.925 1111.57 344.425 1111.57 343.45C1110.99 344.375 1109.79 345.375 1107.82 345.375C1105.27 345.375 1103.69 343.625 1103.69 341.7ZM1108.37 343.1C1109.99 343.1 1111.39 342.325 1111.39 339.95V339.4L1108.22 339.875C1107.32 340.025 1106.59 340.525 1106.59 341.525C1106.59 342.35 1107.22 343.1 1108.37 343.1ZM1120.65 337.975V345H1117.75V332.825H1120.57V334.45C1121.37 333.05 1122.82 332.475 1124.17 332.475C1127.15 332.475 1128.57 334.625 1128.57 337.3V345H1125.67V337.8C1125.67 336.3 1125 335.1 1123.17 335.1C1121.52 335.1 1120.65 336.375 1120.65 337.975ZM1134.05 338.875C1134.05 341.2 1135.35 342.75 1137.33 342.75C1139.23 342.75 1140.55 341.175 1140.55 338.85C1140.55 336.525 1139.25 335.075 1137.35 335.075C1135.45 335.075 1134.05 336.55 1134.05 338.875ZM1143.35 326.9V342.775C1143.35 343.875 1143.45 344.8 1143.48 345H1140.7C1140.65 344.725 1140.58 343.925 1140.58 343.425C1140 344.45 1138.73 345.3 1137 345.3C1133.5 345.3 1131.15 342.55 1131.15 338.875C1131.15 335.375 1133.53 332.5 1136.95 332.5C1139.08 332.5 1140.15 333.475 1140.53 334.25V326.9H1143.35ZM1017.47 377H1014.34L1005.59 363.575V377H1002.59V359.275H1006.42L1014.47 371.85V359.275H1017.47V377ZM1026.76 374.775C1028.56 374.775 1030.16 373.45 1030.16 370.9C1030.16 368.375 1028.56 367.075 1026.76 367.075C1024.98 367.075 1023.36 368.375 1023.36 370.9C1023.36 373.425 1024.98 374.775 1026.76 374.775ZM1026.76 364.45C1030.41 364.45 1033.08 367.175 1033.08 370.9C1033.08 374.65 1030.41 377.375 1026.76 377.375C1023.13 377.375 1020.46 374.65 1020.46 370.9C1020.46 367.175 1023.13 364.45 1026.76 364.45ZM1046.52 364.825L1041.75 377H1038.85L1033.9 364.825H1037.1L1040.32 373.525L1043.47 364.825H1046.52ZM1050.31 369.575H1056.29C1056.24 368.15 1055.29 366.875 1053.29 366.875C1051.46 366.875 1050.41 368.275 1050.31 369.575ZM1056.61 372.75L1059.06 373.525C1058.41 375.65 1056.49 377.375 1053.56 377.375C1050.26 377.375 1047.34 374.975 1047.34 370.85C1047.34 367 1050.19 364.45 1053.26 364.45C1057.01 364.45 1059.21 366.925 1059.21 370.775C1059.21 371.25 1059.16 371.65 1059.14 371.7H1050.24C1050.31 373.55 1051.76 374.875 1053.56 374.875C1055.31 374.875 1056.21 373.95 1056.61 372.75ZM1064.88 377H1061.98V358.9H1064.88V377ZM1072.3 361.1V364.825H1074.83V367.4H1072.3V373.05C1072.3 374.125 1072.78 374.575 1073.85 374.575C1074.25 374.575 1074.73 374.5 1074.85 374.475V376.875C1074.68 376.95 1074.13 377.15 1073.08 377.15C1070.83 377.15 1069.43 375.8 1069.43 373.525V367.4H1067.18V364.825H1067.8C1069.1 364.825 1069.68 364 1069.68 362.925V361.1H1072.3ZM1081.7 381.925H1078.6L1081.53 375.55L1076.33 364.825H1079.6L1083.1 372.525L1086.38 364.825H1089.45L1081.7 381.925ZM1088.81 375.125C1088.81 374 1089.71 373.075 1090.84 373.075C1091.96 373.075 1092.89 374 1092.89 375.125C1092.89 376.25 1091.96 377.15 1090.84 377.15C1089.71 377.15 1088.81 376.25 1088.81 375.125Z" fill="#6E6E6E"/>
<path d="M654.299 579.45H658.899C661.899 579.45 663.949 577.7 663.949 574.95C663.949 572.1 661.899 570.4 658.899 570.4H654.299V579.45ZM659.699 586.25H654.249V599H646.349V563.55H659.699C666.899 563.55 671.849 568.3 671.849 574.9C671.849 581.6 666.899 586.25 659.699 586.25ZM693.819 599L687.469 585.8H684.669V599H676.769V563.55H690.819C697.819 563.55 702.319 568.35 702.319 574.65C702.319 579.45 699.669 583.1 695.319 584.65L702.519 599H693.819ZM684.669 579H689.319C692.569 579 694.319 577.2 694.319 574.7C694.319 572.05 692.569 570.4 689.319 570.4H684.669V579ZM730.665 599H708.165V563.55H730.615V571H716.065V577.75H729.265V584.7H716.065V591.5H730.665V599ZM761.716 572.25L754.616 574.25C754.366 572.6 753.016 569.8 748.716 569.8C745.766 569.8 743.866 571.65 743.866 573.6C743.866 575.3 744.916 576.55 747.366 577L752.116 577.9C758.866 579.15 762.366 583.5 762.366 588.55C762.366 594.1 757.716 599.75 749.266 599.75C739.466 599.75 735.266 593.4 734.766 588.4L742.016 586.65C742.316 589.9 744.516 592.75 749.366 592.75C752.466 592.75 754.366 591.25 754.366 589.05C754.366 587.25 752.916 585.95 750.566 585.5L745.716 584.6C739.716 583.45 736.066 579.45 736.066 574.2C736.066 567.5 741.966 562.8 748.766 562.8C757.616 562.8 760.966 568.1 761.716 572.25ZM790.285 599H767.785V563.55H790.235V571H775.685V577.75H788.885V584.7H775.685V591.5H790.285V599ZM827.735 599H819.385L804.785 575.7V599H796.935V563.55H806.535L819.835 585.1V563.55H827.735V599ZM862.213 571.1H851.263V599H843.363V571.1H832.463V563.55H862.213V571.1ZM887.482 599L884.932 591.8H871.232L868.682 599H860.382L873.732 563.55H882.882L896.082 599H887.482ZM878.182 572.35L873.832 584.6H882.432L878.182 572.35ZM924.029 571.1H913.079V599H905.179V571.1H894.279V563.55H924.029V571.1ZM936.82 599H928.82V563.55H936.82V599ZM950.644 581.25C950.644 588.65 955.944 591.95 960.894 591.95C965.794 591.95 971.094 588.65 971.094 581.25C971.094 573.85 965.794 570.5 960.894 570.5C955.944 570.5 950.644 573.85 950.644 581.25ZM942.444 581.3C942.444 570.05 950.894 562.8 960.894 562.8C970.844 562.8 979.294 570.05 979.294 581.3C979.294 592.5 970.844 599.75 960.894 599.75C950.894 599.75 942.444 592.5 942.444 581.3ZM1015.72 599H1007.37L992.773 575.7V599H984.923V563.55H994.523L1007.82 585.1V563.55H1015.72V599Z" fill="black"/>
<g opacity="0.2">
<path d="M1070 795L1118 747L1070 699" stroke="black" stroke-width="16" stroke-linecap="round" stroke-linejoin="round"/>
<path d="M1006 699L958 747L1006 795" stroke="black" stroke-width="16" stroke-linecap="round" stroke-linejoin="round"/>
</g>
<path d="M722.021 634.425H725.146C727.046 634.425 728.196 633.375 728.196 631.7C728.196 630 727.046 628.925 725.146 628.925H722.021V634.425ZM725.596 637.075H722.021V644H719.021V626.275H725.596C728.996 626.275 731.246 628.575 731.246 631.675C731.246 634.8 728.996 637.075 725.596 637.075ZM740.618 631.75V634.7C740.293 634.65 739.968 634.625 739.668 634.625C737.418 634.625 736.393 635.925 736.393 638.2V644H733.493V631.825H736.318V633.775C736.893 632.45 738.243 631.675 739.843 631.675C740.193 631.675 740.493 631.725 740.618 631.75ZM744.942 636.575H750.917C750.867 635.15 749.917 633.875 747.917 633.875C746.092 633.875 745.042 635.275 744.942 636.575ZM751.242 639.75L753.692 640.525C753.042 642.65 751.117 644.375 748.192 644.375C744.892 644.375 741.967 641.975 741.967 637.85C741.967 634 744.817 631.45 747.892 631.45C751.642 631.45 753.842 633.925 753.842 637.775C753.842 638.25 753.792 638.65 753.767 638.7H744.867C744.942 640.55 746.392 641.875 748.192 641.875C749.942 641.875 750.842 640.95 751.242 639.75ZM755.538 640.7L758.063 640C758.163 641.1 758.988 642.075 760.538 642.075C761.738 642.075 762.363 641.425 762.363 640.675C762.363 640.025 761.913 639.525 760.938 639.325L759.138 638.925C756.988 638.45 755.863 637.05 755.863 635.375C755.863 633.25 757.813 631.45 760.338 631.45C763.738 631.45 764.838 633.65 765.038 634.85L762.588 635.55C762.488 634.85 761.963 633.725 760.338 633.725C759.313 633.725 758.588 634.375 758.588 635.125C758.588 635.775 759.063 636.25 759.813 636.4L761.663 636.775C763.963 637.275 765.163 638.675 765.163 640.475C765.163 642.325 763.663 644.375 760.563 644.375C757.038 644.375 755.688 642.075 755.538 640.7ZM769.991 636.575H775.966C775.916 635.15 774.966 633.875 772.966 633.875C771.141 633.875 770.091 635.275 769.991 636.575ZM776.291 639.75L778.741 640.525C778.091 642.65 776.166 644.375 773.241 644.375C769.941 644.375 767.016 641.975 767.016 637.85C767.016 634 769.866 631.45 772.941 631.45C776.691 631.45 778.891 633.925 778.891 637.775C778.891 638.25 778.841 638.65 778.816 638.7H769.916C769.991 640.55 771.441 641.875 773.241 641.875C774.991 641.875 775.891 640.95 776.291 639.75ZM784.562 636.975V644H781.662V631.825H784.487V633.45C785.287 632.05 786.737 631.475 788.087 631.475C791.062 631.475 792.487 633.625 792.487 636.3V644H789.587V636.8C789.587 635.3 788.912 634.1 787.087 634.1C785.437 634.1 784.562 635.375 784.562 636.975ZM799.693 628.1V631.825H802.218V634.4H799.693V640.05C799.693 641.125 800.168 641.575 801.243 641.575C801.643 641.575 802.118 641.5 802.243 641.475V643.875C802.068 643.95 801.518 644.15 800.468 644.15C798.218 644.15 796.818 642.8 796.818 640.525V634.4H794.568V631.825H795.193C796.493 631.825 797.068 631 797.068 629.925V628.1H799.693ZM804.472 640.7C804.472 638.525 806.072 637.325 808.147 637.025L811.272 636.55C811.972 636.45 812.172 636.1 812.172 635.675C812.172 634.65 811.472 633.825 809.872 633.825C808.347 633.825 807.497 634.8 807.372 636.025L804.722 635.425C804.947 633.325 806.847 631.45 809.847 631.45C813.597 631.45 815.022 633.575 815.022 636V642.05C815.022 643.15 815.147 643.875 815.172 644H812.472C812.447 643.925 812.347 643.425 812.347 642.45C811.772 643.375 810.572 644.375 808.597 644.375C806.047 644.375 804.472 642.625 804.472 640.7ZM809.147 642.1C810.772 642.1 812.172 641.325 812.172 638.95V638.4L808.997 638.875C808.097 639.025 807.372 639.525 807.372 640.525C807.372 641.35 807.997 642.1 809.147 642.1ZM822.154 628.1V631.825H824.679V634.4H822.154V640.05C822.154 641.125 822.629 641.575 823.704 641.575C824.104 641.575 824.579 641.5 824.704 641.475V643.875C824.529 643.95 823.979 644.15 822.929 644.15C820.679 644.15 819.279 642.8 819.279 640.525V634.4H817.029V631.825H817.654C818.954 631.825 819.529 631 819.529 629.925V628.1H822.154ZM830.533 644H827.658V631.825H830.533V644ZM827.208 627.55C827.208 626.5 828.058 625.65 829.083 625.65C830.133 625.65 830.983 626.5 830.983 627.55C830.983 628.6 830.133 629.425 829.083 629.425C828.058 629.425 827.208 628.6 827.208 627.55ZM839.624 641.775C841.424 641.775 843.024 640.45 843.024 637.9C843.024 635.375 841.424 634.075 839.624 634.075C837.849 634.075 836.224 635.375 836.224 637.9C836.224 640.425 837.849 641.775 839.624 641.775ZM839.624 631.45C843.274 631.45 845.949 634.175 845.949 637.9C845.949 641.65 843.274 644.375 839.624 644.375C835.999 644.375 833.324 641.65 833.324 637.9C833.324 634.175 835.999 631.45 839.624 631.45ZM851.652 636.975V644H848.752V631.825H851.577V633.45C852.377 632.05 853.827 631.475 855.177 631.475C858.152 631.475 859.577 633.625 859.577 636.3V644H856.677V636.8C856.677 635.3 856.002 634.1 854.177 634.1C852.527 634.1 851.652 635.375 851.652 636.975ZM862.032 640.7L864.557 640C864.657 641.1 865.482 642.075 867.032 642.075C868.232 642.075 868.857 641.425 868.857 640.675C868.857 640.025 868.407 639.525 867.432 639.325L865.632 638.925C863.482 638.45 862.357 637.05 862.357 635.375C862.357 633.25 864.307 631.45 866.832 631.45C870.232 631.45 871.332 633.65 871.532 634.85L869.082 635.55C868.982 634.85 868.457 633.725 866.832 633.725C865.807 633.725 865.082 634.375 865.082 635.125C865.082 635.775 865.557 636.25 866.307 636.4L868.157 636.775C870.457 637.275 871.657 638.675 871.657 640.475C871.657 642.325 870.157 644.375 867.057 644.375C863.532 644.375 862.182 642.075 862.032 640.7ZM887.634 631.825H890.634L893.509 640.25L895.934 631.825H898.884L894.984 644H892.084L889.059 635.25L886.109 644H883.134L879.184 631.825H882.284L884.759 640.25L887.634 631.825ZM903.971 644H901.096V631.825H903.971V644ZM900.646 627.55C900.646 626.5 901.496 625.65 902.521 625.65C903.571 625.65 904.421 626.5 904.421 627.55C904.421 628.6 903.571 629.425 902.521 629.425C901.496 629.425 900.646 628.6 900.646 627.55ZM910.612 644H907.712V625.9H910.612V644ZM917.253 644H914.353V625.9H917.253V644ZM930.019 644H927.194V625.9H930.044V633.325C930.594 632.375 931.994 631.5 933.869 631.5C937.519 631.5 939.494 634.275 939.494 637.85C939.494 641.525 937.319 644.3 933.769 644.3C932.044 644.3 930.719 643.55 930.019 642.375V644ZM936.569 637.875C936.569 635.45 935.219 634.075 933.294 634.075C931.444 634.075 930.019 635.45 930.019 637.875C930.019 640.275 931.444 641.725 933.294 641.725C935.194 641.725 936.569 640.275 936.569 637.875ZM944.307 636.575H950.282C950.232 635.15 949.282 633.875 947.282 633.875C945.457 633.875 944.407 635.275 944.307 636.575ZM950.607 639.75L953.057 640.525C952.407 642.65 950.482 644.375 947.557 644.375C944.257 644.375 941.332 641.975 941.332 637.85C941.332 634 944.182 631.45 947.257 631.45C951.007 631.45 953.207 633.925 953.207 637.775C953.207 638.25 953.157 638.65 953.132 638.7H944.232C944.307 640.55 945.757 641.875 947.557 641.875C949.307 641.875 950.207 640.95 950.607 639.75ZM736.008 677V663.825H738.908V677.225C738.908 679.5 737.533 681.125 735.283 681.125C734.308 681.125 733.758 680.95 733.633 680.9V678.5C733.758 678.525 734.183 678.575 734.508 678.575C735.608 678.575 736.008 678 736.008 677ZM735.558 659.525C735.558 658.475 736.408 657.625 737.433 657.625C738.483 657.625 739.333 658.475 739.333 659.525C739.333 660.55 738.483 661.4 737.433 661.4C736.408 661.4 735.558 660.55 735.558 659.525ZM750.573 674.65C749.973 675.75 748.548 676.35 747.123 676.35C744.223 676.35 742.523 674.2 742.523 671.5V663.825H745.423V670.975C745.423 672.475 746.123 673.75 747.873 673.75C749.548 673.75 750.423 672.625 750.423 671.025V663.825H753.323V673.775C753.323 674.775 753.398 675.55 753.448 676H750.673C750.623 675.725 750.573 675.15 750.573 674.65ZM758.954 669.875C758.954 672.2 760.254 673.75 762.229 673.75C764.129 673.75 765.454 672.175 765.454 669.85C765.454 667.525 764.154 666.075 762.254 666.075C760.354 666.075 758.954 667.55 758.954 669.875ZM768.254 657.9V673.775C768.254 674.875 768.354 675.8 768.379 676H765.604C765.554 675.725 765.479 674.925 765.479 674.425C764.904 675.45 763.629 676.3 761.904 676.3C758.404 676.3 756.054 673.55 756.054 669.875C756.054 666.375 758.429 663.5 761.854 663.5C763.979 663.5 765.054 664.475 765.429 665.25V657.9H768.254ZM771.168 676.675L773.843 675.975C774.043 677.475 775.218 678.6 776.893 678.6C779.193 678.6 780.343 677.425 780.343 674.95V673.675C779.818 674.625 778.593 675.45 776.818 675.45C773.568 675.45 771.193 672.95 771.193 669.525C771.193 666.275 773.468 663.6 776.818 663.6C778.718 663.6 779.893 664.375 780.418 665.375V663.825H783.218V674.85C783.218 678.1 781.543 681.125 776.968 681.125C773.743 681.125 771.493 679.125 771.168 676.675ZM777.293 672.975C779.143 672.975 780.418 671.625 780.418 669.525C780.418 667.45 779.093 666.1 777.293 666.1C775.443 666.1 774.118 667.45 774.118 669.525C774.118 671.65 775.393 672.975 777.293 672.975ZM788.79 668.575H794.765C794.715 667.15 793.765 665.875 791.765 665.875C789.94 665.875 788.89 667.275 788.79 668.575ZM795.09 671.75L797.54 672.525C796.89 674.65 794.965 676.375 792.04 676.375C788.74 676.375 785.815 673.975 785.815 669.85C785.815 666 788.665 663.45 791.74 663.45C795.49 663.45 797.69 665.925 797.69 669.775C797.69 670.25 797.64 670.65 797.615 670.7H788.715C788.79 672.55 790.24 673.875 792.04 673.875C793.79 673.875 794.69 672.95 795.09 671.75ZM802.411 669.875C802.411 672.2 803.711 673.75 805.686 673.75C807.586 673.75 808.911 672.175 808.911 669.85C808.911 667.525 807.611 666.075 805.711 666.075C803.811 666.075 802.411 667.55 802.411 669.875ZM811.711 657.9V673.775C811.711 674.875 811.811 675.8 811.836 676H809.061C809.011 675.725 808.936 674.925 808.936 674.425C808.361 675.45 807.086 676.3 805.361 676.3C801.861 676.3 799.511 673.55 799.511 669.875C799.511 666.375 801.886 663.5 805.311 663.5C807.436 663.5 808.511 664.475 808.886 665.25V657.9H811.711ZM824.526 676H821.701V657.9H824.551V665.325C825.101 664.375 826.501 663.5 828.376 663.5C832.026 663.5 834.001 666.275 834.001 669.85C834.001 673.525 831.826 676.3 828.276 676.3C826.551 676.3 825.226 675.55 824.526 674.375V676ZM831.076 669.875C831.076 667.45 829.726 666.075 827.801 666.075C825.951 666.075 824.526 667.45 824.526 669.875C824.526 672.275 825.951 673.725 827.801 673.725C829.701 673.725 831.076 672.275 831.076 669.875ZM839.928 680.925H836.828L839.753 674.55L834.553 663.825H837.828L841.328 671.525L844.603 663.825H847.678L839.928 680.925ZM864.128 676.375C859.353 676.375 855.178 672.925 855.178 667.15C855.178 661.375 859.503 657.9 864.103 657.9C868.603 657.9 871.278 660.55 872.078 663.65L869.253 664.6C868.728 662.45 867.078 660.725 864.103 660.725C861.178 660.725 858.253 662.85 858.253 667.15C858.253 671.3 861.103 673.5 864.128 673.5C867.103 673.5 868.803 671.6 869.403 669.6L872.153 670.5C871.353 673.5 868.653 676.375 864.128 676.375ZM877.604 676H874.704V657.9H877.604V676ZM880.546 672.7C880.546 670.525 882.146 669.325 884.221 669.025L887.346 668.55C888.046 668.45 888.246 668.1 888.246 667.675C888.246 666.65 887.546 665.825 885.946 665.825C884.421 665.825 883.571 666.8 883.446 668.025L880.796 667.425C881.021 665.325 882.921 663.45 885.921 663.45C889.671 663.45 891.096 665.575 891.096 668V674.05C891.096 675.15 891.221 675.875 891.246 676H888.546C888.521 675.925 888.421 675.425 888.421 674.45C887.846 675.375 886.646 676.375 884.671 676.375C882.121 676.375 880.546 674.625 880.546 672.7ZM885.221 674.1C886.846 674.1 888.246 673.325 888.246 670.95V670.4L885.071 670.875C884.171 671.025 883.446 671.525 883.446 672.525C883.446 673.35 884.071 674.1 885.221 674.1ZM901.727 663.75V666.7C901.402 666.65 901.077 666.625 900.777 666.625C898.527 666.625 897.502 667.925 897.502 670.2V676H894.602V663.825H897.427V665.775C898.002 664.45 899.352 663.675 900.952 663.675C901.302 663.675 901.602 663.725 901.727 663.75ZM907.022 676H904.147V663.825H907.022V676ZM903.697 659.55C903.697 658.5 904.547 657.65 905.572 657.65C906.622 657.65 907.472 658.5 907.472 659.55C907.472 660.6 906.622 661.425 905.572 661.425C904.547 661.425 903.697 660.6 903.697 659.55ZM914.439 660.1V663.825H916.964V666.4H914.439V672.05C914.439 673.125 914.914 673.575 915.989 673.575C916.389 673.575 916.864 673.5 916.989 673.475V675.875C916.814 675.95 916.264 676.15 915.214 676.15C912.964 676.15 911.564 674.8 911.564 672.525V666.4H909.314V663.825H909.939C911.239 663.825 911.814 663 911.814 661.925V660.1H914.439ZM923.839 680.925H920.739L923.664 674.55L918.464 663.825H921.739L925.239 671.525L928.514 663.825H931.589L923.839 680.925ZM930.899 674.175C930.899 673.125 931.799 672.275 932.974 672.275C934.299 672.275 935.249 673.325 935.249 674.925C935.249 678.425 932.874 679.9 931.174 680.125V678.65C932.324 678.4 933.374 677.25 933.399 675.95C933.299 676 933.124 676.075 932.799 676.075C931.699 676.075 930.899 675.325 930.899 674.175ZM745.537 708.375C740.762 708.375 736.587 704.925 736.587 699.15C736.587 693.375 740.912 689.9 745.512 689.9C750.012 689.9 752.687 692.55 753.487 695.65L750.662 696.6C750.137 694.45 748.487 692.725 745.512 692.725C742.587 692.725 739.662 694.85 739.662 699.15C739.662 703.3 742.512 705.5 745.537 705.5C748.512 705.5 750.212 703.6 750.812 701.6L753.562 702.5C752.762 705.5 750.062 708.375 745.537 708.375ZM761.267 705.775C763.067 705.775 764.667 704.45 764.667 701.9C764.667 699.375 763.067 698.075 761.267 698.075C759.492 698.075 757.867 699.375 757.867 701.9C757.867 704.425 759.492 705.775 761.267 705.775ZM761.267 695.45C764.917 695.45 767.592 698.175 767.592 701.9C767.592 705.65 764.917 708.375 761.267 708.375C757.642 708.375 754.967 705.65 754.967 701.9C754.967 698.175 757.642 695.45 761.267 695.45ZM773.295 700.975V708H770.395V695.825H773.22V697.45C774.02 696.05 775.47 695.475 776.82 695.475C779.795 695.475 781.22 697.625 781.22 700.3V708H778.32V700.8C778.32 699.3 777.645 698.1 775.82 698.1C774.17 698.1 773.295 699.375 773.295 700.975ZM790.05 698.125C788.275 698.125 786.7 699.45 786.7 701.9C786.7 704.35 788.275 705.725 790.1 705.725C792 705.725 792.875 704.4 793.15 703.475L795.7 704.4C795.125 706.3 793.3 708.375 790.1 708.375C786.525 708.375 783.8 705.6 783.8 701.9C783.8 698.15 786.525 695.45 790.025 695.45C793.3 695.45 795.1 697.5 795.6 699.45L793 700.4C792.725 699.325 791.9 698.125 790.05 698.125ZM801.151 708H798.276V695.825H801.151V708ZM797.826 691.55C797.826 690.5 798.676 689.65 799.701 689.65C800.751 689.65 801.601 690.5 801.601 691.55C801.601 692.6 800.751 693.425 799.701 693.425C798.676 693.425 797.826 692.6 797.826 691.55ZM803.817 704.7L806.342 704C806.442 705.1 807.267 706.075 808.817 706.075C810.017 706.075 810.642 705.425 810.642 704.675C810.642 704.025 810.192 703.525 809.217 703.325L807.417 702.925C805.267 702.45 804.142 701.05 804.142 699.375C804.142 697.25 806.092 695.45 808.617 695.45C812.017 695.45 813.117 697.65 813.317 698.85L810.867 699.55C810.767 698.85 810.242 697.725 808.617 697.725C807.592 697.725 806.867 698.375 806.867 699.125C806.867 699.775 807.342 700.25 808.092 700.4L809.942 700.775C812.242 701.275 813.442 702.675 813.442 704.475C813.442 706.325 811.942 708.375 808.842 708.375C805.317 708.375 803.967 706.075 803.817 704.7ZM818.27 700.575H824.245C824.195 699.15 823.245 697.875 821.245 697.875C819.42 697.875 818.37 699.275 818.27 700.575ZM824.57 703.75L827.02 704.525C826.37 706.65 824.445 708.375 821.52 708.375C818.22 708.375 815.295 705.975 815.295 701.85C815.295 698 818.145 695.45 821.22 695.45C824.97 695.45 827.17 697.925 827.17 701.775C827.17 702.25 827.12 702.65 827.095 702.7H818.195C818.27 704.55 819.72 705.875 821.52 705.875C823.27 705.875 824.17 704.95 824.57 703.75ZM832.841 700.975V708H829.941V695.825H832.766V697.45C833.566 696.05 835.016 695.475 836.366 695.475C839.341 695.475 840.766 697.625 840.766 700.3V708H837.866V700.8C837.866 699.3 837.191 698.1 835.366 698.1C833.716 698.1 832.841 699.375 832.841 700.975ZM846.321 700.575H852.296C852.246 699.15 851.296 697.875 849.296 697.875C847.471 697.875 846.421 699.275 846.321 700.575ZM852.621 703.75L855.071 704.525C854.421 706.65 852.496 708.375 849.571 708.375C846.271 708.375 843.346 705.975 843.346 701.85C843.346 698 846.196 695.45 849.271 695.45C853.021 695.45 855.221 697.925 855.221 701.775C855.221 702.25 855.171 702.65 855.146 702.7H846.246C846.321 704.55 847.771 705.875 849.571 705.875C851.321 705.875 852.221 704.95 852.621 703.75ZM856.918 704.7L859.443 704C859.543 705.1 860.368 706.075 861.918 706.075C863.118 706.075 863.743 705.425 863.743 704.675C863.743 704.025 863.293 703.525 862.318 703.325L860.518 702.925C858.368 702.45 857.243 701.05 857.243 699.375C857.243 697.25 859.193 695.45 861.718 695.45C865.118 695.45 866.218 697.65 866.418 698.85L863.968 699.55C863.868 698.85 863.343 697.725 861.718 697.725C860.693 697.725 859.968 698.375 859.968 699.125C859.968 699.775 860.443 700.25 861.193 700.4L863.043 700.775C865.343 701.275 866.543 702.675 866.543 704.475C866.543 706.325 865.043 708.375 861.943 708.375C858.418 708.375 857.068 706.075 856.918 704.7ZM868.343 704.7L870.868 704C870.968 705.1 871.793 706.075 873.343 706.075C874.543 706.075 875.168 705.425 875.168 704.675C875.168 704.025 874.718 703.525 873.743 703.325L871.943 702.925C869.793 702.45 868.668 701.05 868.668 699.375C868.668 697.25 870.618 695.45 873.143 695.45C876.543 695.45 877.643 697.65 877.843 698.85L875.393 699.55C875.293 698.85 874.768 697.725 873.143 697.725C872.118 697.725 871.393 698.375 871.393 699.125C871.393 699.775 871.868 700.25 872.618 700.4L874.468 700.775C876.768 701.275 877.968 702.675 877.968 704.475C877.968 706.325 876.468 708.375 873.368 708.375C869.843 708.375 868.493 706.075 868.343 704.7ZM880.594 706.175C880.594 705.125 881.494 704.275 882.669 704.275C883.994 704.275 884.944 705.325 884.944 706.925C884.944 710.425 882.569 711.9 880.869 712.125V710.65C882.019 710.4 883.069 709.25 883.094 707.95C882.994 708 882.819 708.075 882.494 708.075C881.394 708.075 880.594 707.325 880.594 706.175ZM893.888 704.7C893.888 702.525 895.488 701.325 897.563 701.025L900.688 700.55C901.388 700.45 901.588 700.1 901.588 699.675C901.588 698.65 900.888 697.825 899.288 697.825C897.763 697.825 896.913 698.8 896.788 700.025L894.138 699.425C894.363 697.325 896.263 695.45 899.263 695.45C903.013 695.45 904.438 697.575 904.438 700V706.05C904.438 707.15 904.563 707.875 904.588 708H901.888C901.863 707.925 901.763 707.425 901.763 706.45C901.188 707.375 899.988 708.375 898.013 708.375C895.463 708.375 893.888 706.625 893.888 704.7ZM898.563 706.1C900.188 706.1 901.588 705.325 901.588 702.95V702.4L898.413 702.875C897.513 703.025 896.788 703.525 896.788 704.525C896.788 705.35 897.413 706.1 898.563 706.1ZM910.844 700.975V708H907.944V695.825H910.769V697.45C911.569 696.05 913.019 695.475 914.369 695.475C917.344 695.475 918.769 697.625 918.769 700.3V708H915.869V700.8C915.869 699.3 915.194 698.1 913.369 698.1C911.719 698.1 910.844 699.375 910.844 700.975ZM924.249 701.875C924.249 704.2 925.549 705.75 927.524 705.75C929.424 705.75 930.749 704.175 930.749 701.85C930.749 699.525 929.449 698.075 927.549 698.075C925.649 698.075 924.249 699.55 924.249 701.875ZM933.549 689.9V705.775C933.549 706.875 933.649 707.8 933.674 708H930.899C930.849 707.725 930.774 706.925 930.774 706.425C930.199 707.45 928.924 708.3 927.199 708.3C923.699 708.3 921.349 705.55 921.349 701.875C921.349 698.375 923.724 695.5 927.149 695.5C929.274 695.5 930.349 696.475 930.724 697.25V689.9H933.549ZM750.989 730.425H754.114C756.014 730.425 757.164 729.375 757.164 727.7C757.164 726 756.014 724.925 754.114 724.925H750.989V730.425ZM754.564 733.075H750.989V740H747.989V722.275H754.564C757.964 722.275 760.214 724.575 760.214 727.675C760.214 730.8 757.964 733.075 754.564 733.075ZM763.924 732.575H769.899C769.849 731.15 768.899 729.875 766.899 729.875C765.074 729.875 764.024 731.275 763.924 732.575ZM770.224 735.75L772.674 736.525C772.024 738.65 770.099 740.375 767.174 740.375C763.874 740.375 760.949 737.975 760.949 733.85C760.949 730 763.799 727.45 766.874 727.45C770.624 727.45 772.824 729.925 772.824 733.775C772.824 734.25 772.774 734.65 772.749 734.7H763.849C763.924 736.55 765.374 737.875 767.174 737.875C768.924 737.875 769.824 736.95 770.224 735.75ZM782.72 727.75V730.7C782.395 730.65 782.07 730.625 781.77 730.625C779.52 730.625 778.495 731.925 778.495 734.2V740H775.595V727.825H778.42V729.775C778.995 728.45 780.345 727.675 781.945 727.675C782.295 727.675 782.595 727.725 782.72 727.75ZM784.091 736.7L786.616 736C786.716 737.1 787.541 738.075 789.091 738.075C790.291 738.075 790.916 737.425 790.916 736.675C790.916 736.025 790.466 735.525 789.491 735.325L787.691 734.925C785.541 734.45 784.416 733.05 784.416 731.375C784.416 729.25 786.366 727.45 788.891 727.45C792.291 727.45 793.391 729.65 793.591 730.85L791.141 731.55C791.041 730.85 790.516 729.725 788.891 729.725C787.866 729.725 787.141 730.375 787.141 731.125C787.141 731.775 787.616 732.25 788.366 732.4L790.216 732.775C792.516 733.275 793.716 734.675 793.716 736.475C793.716 738.325 792.216 740.375 789.116 740.375C785.591 740.375 784.241 738.075 784.091 736.7ZM804.394 738.65C803.794 739.75 802.369 740.35 800.944 740.35C798.044 740.35 796.344 738.2 796.344 735.5V727.825H799.244V734.975C799.244 736.475 799.944 737.75 801.694 737.75C803.369 737.75 804.244 736.625 804.244 735.025V727.825H807.144V737.775C807.144 738.775 807.219 739.55 807.269 740H804.494C804.444 739.725 804.394 739.15 804.394 738.65ZM810.148 736.7C810.148 734.525 811.748 733.325 813.823 733.025L816.948 732.55C817.648 732.45 817.848 732.1 817.848 731.675C817.848 730.65 817.148 729.825 815.548 729.825C814.023 729.825 813.173 730.8 813.048 732.025L810.398 731.425C810.623 729.325 812.523 727.45 815.523 727.45C819.273 727.45 820.698 729.575 820.698 732V738.05C820.698 739.15 820.823 739.875 820.848 740H818.148C818.123 739.925 818.023 739.425 818.023 738.45C817.448 739.375 816.248 740.375 814.273 740.375C811.723 740.375 810.148 738.625 810.148 736.7ZM814.823 738.1C816.448 738.1 817.848 737.325 817.848 734.95V734.4L814.673 734.875C813.773 735.025 813.048 735.525 813.048 736.525C813.048 737.35 813.673 738.1 814.823 738.1ZM823.129 736.7L825.654 736C825.754 737.1 826.579 738.075 828.129 738.075C829.329 738.075 829.954 737.425 829.954 736.675C829.954 736.025 829.504 735.525 828.529 735.325L826.729 734.925C824.579 734.45 823.454 733.05 823.454 731.375C823.454 729.25 825.404 727.45 827.929 727.45C831.329 727.45 832.429 729.65 832.629 730.85L830.179 731.55C830.079 730.85 829.554 729.725 827.929 729.725C826.904 729.725 826.179 730.375 826.179 731.125C826.179 731.775 826.654 732.25 827.404 732.4L829.254 732.775C831.554 733.275 832.754 734.675 832.754 736.475C832.754 738.325 831.254 740.375 828.154 740.375C824.629 740.375 823.279 738.075 823.129 736.7ZM838.504 740H835.629V727.825H838.504V740ZM835.179 723.55C835.179 722.5 836.029 721.65 837.054 721.65C838.104 721.65 838.954 722.5 838.954 723.55C838.954 724.6 838.104 725.425 837.054 725.425C836.029 725.425 835.179 724.6 835.179 723.55ZM853.246 727.825L848.471 740H845.571L840.621 727.825H843.821L847.046 736.525L850.196 727.825H853.246ZM857.039 732.575H863.014C862.964 731.15 862.014 729.875 860.014 729.875C858.189 729.875 857.139 731.275 857.039 732.575ZM863.339 735.75L865.789 736.525C865.139 738.65 863.214 740.375 860.289 740.375C856.989 740.375 854.064 737.975 854.064 733.85C854.064 730 856.914 727.45 859.989 727.45C863.739 727.45 865.939 729.925 865.939 733.775C865.939 734.25 865.889 734.65 865.864 734.7H856.964C857.039 736.55 858.489 737.875 860.289 737.875C862.039 737.875 862.939 736.95 863.339 735.75ZM871.61 732.975V740H868.71V727.825H871.535V729.45C872.335 728.05 873.785 727.475 875.135 727.475C878.11 727.475 879.535 729.625 879.535 732.3V740H876.635V732.8C876.635 731.3 875.96 730.1 874.135 730.1C872.485 730.1 871.61 731.375 871.61 732.975ZM885.091 732.575H891.066C891.016 731.15 890.066 729.875 888.066 729.875C886.241 729.875 885.191 731.275 885.091 732.575ZM891.391 735.75L893.841 736.525C893.191 738.65 891.266 740.375 888.341 740.375C885.041 740.375 882.116 737.975 882.116 733.85C882.116 730 884.966 727.45 888.041 727.45C891.791 727.45 893.991 729.925 893.991 733.775C893.991 734.25 893.941 734.65 893.916 734.7H885.016C885.091 736.55 886.541 737.875 888.341 737.875C890.091 737.875 890.991 736.95 891.391 735.75ZM895.687 736.7L898.212 736C898.312 737.1 899.137 738.075 900.687 738.075C901.887 738.075 902.512 737.425 902.512 736.675C902.512 736.025 902.062 735.525 901.087 735.325L899.287 734.925C897.137 734.45 896.012 733.05 896.012 731.375C896.012 729.25 897.962 727.45 900.487 727.45C903.887 727.45 904.987 729.65 905.187 730.85L902.737 731.55C902.637 730.85 902.112 729.725 900.487 729.725C899.462 729.725 898.737 730.375 898.737 731.125C898.737 731.775 899.212 732.25 899.962 732.4L901.812 732.775C904.112 733.275 905.312 734.675 905.312 736.475C905.312 738.325 903.812 740.375 900.712 740.375C897.187 740.375 895.837 738.075 895.687 736.7ZM907.113 736.7L909.638 736C909.738 737.1 910.563 738.075 912.113 738.075C913.313 738.075 913.938 737.425 913.938 736.675C913.938 736.025 913.488 735.525 912.513 735.325L910.713 734.925C908.563 734.45 907.438 733.05 907.438 731.375C907.438 729.25 909.388 727.45 911.913 727.45C915.313 727.45 916.413 729.65 916.613 730.85L914.163 731.55C914.063 730.85 913.538 729.725 911.913 729.725C910.888 729.725 910.163 730.375 910.163 731.125C910.163 731.775 910.638 732.25 911.388 732.4L913.238 732.775C915.538 733.275 916.738 734.675 916.738 736.475C916.738 738.325 915.238 740.375 912.138 740.375C908.613 740.375 907.263 738.075 907.113 736.7ZM919.414 738.125C919.414 737 920.314 736.075 921.439 736.075C922.564 736.075 923.489 737 923.489 738.125C923.489 739.25 922.564 740.15 921.439 740.15C920.314 740.15 919.414 739.25 919.414 738.125Z" fill="#6E6E6E"/>
<path d="M110.416 377.08L116.536 354.64H120.576L112.496 383H108.456L101.056 360L93.7356 383H89.8156L81.6156 354.64H85.6556L91.8956 376.84L99.0156 354.64H103.136L110.416 377.08ZM128.132 371.68V383H124.372V354.04H128.132V366C129.532 363.96 131.772 363.2 133.972 363.2C138.572 363.2 140.852 366.52 140.852 370.8V383H137.092V371.44C137.092 368.76 135.972 366.6 132.612 366.6C129.732 366.6 128.212 368.84 128.132 371.68ZM145.633 377.84C145.633 374.4 148.153 372.48 151.473 372L156.673 371.24C157.833 371.08 158.153 370.48 158.153 369.8C158.153 367.92 156.913 366.36 153.993 366.36C151.353 366.36 149.873 368 149.633 370.24L146.033 369.4C146.433 365.72 149.753 363.16 153.913 363.16C159.673 363.16 161.913 366.44 161.913 370.2V379.84C161.913 381.52 162.073 382.52 162.153 383H158.473C158.393 382.52 158.273 381.8 158.273 380.4C157.433 381.76 155.513 383.6 152.073 383.6C148.153 383.6 145.633 380.88 145.633 377.84ZM152.593 380.44C155.673 380.44 158.153 378.96 158.153 374.76V373.88L152.273 374.76C150.673 375 149.473 375.92 149.473 377.64C149.473 379.08 150.673 380.44 152.593 380.44ZM172.81 357.68V363.76H176.97V367.16H172.81V377.16C172.81 378.92 173.53 379.8 175.49 379.8C175.97 379.8 176.65 379.72 176.97 379.64V382.84C176.65 382.96 175.69 383.2 174.41 383.2C171.13 383.2 169.05 381.2 169.05 377.72V367.16H165.37V363.76H166.41C168.49 363.76 169.37 362.48 169.37 360.8V357.68H172.81ZM196.789 391.04H192.669L197.469 380.88L189.189 363.76H193.509L199.509 377.04L205.269 363.76H209.309L196.789 391.04ZM220.385 380.24C223.585 380.24 226.385 377.84 226.385 373.36C226.385 368.92 223.585 366.52 220.385 366.52C217.185 366.52 214.385 368.92 214.385 373.36C214.385 377.84 217.185 380.24 220.385 380.24ZM220.385 363.16C226.145 363.16 230.225 367.52 230.225 373.36C230.225 379.24 226.145 383.6 220.385 383.6C214.625 383.6 210.545 379.24 210.545 373.36C210.545 367.52 214.625 363.16 220.385 363.16ZM247.521 380.68C246.481 382.68 244.081 383.6 241.841 383.6C237.361 383.6 234.641 380.24 234.641 375.88V363.76H238.401V375.32C238.401 377.96 239.601 380.28 242.761 380.28C245.801 380.28 247.321 378.28 247.321 375.36V363.76H251.081V379.44C251.081 380.96 251.201 382.32 251.281 383H247.681C247.601 382.56 247.521 381.48 247.521 380.68ZM268.177 363.56V367.56C267.617 367.48 267.057 367.44 266.537 367.44C263.377 367.44 261.257 369.12 261.257 373.36V383H257.497V363.76H261.177V367.12C262.577 364.16 264.977 363.44 266.937 363.44C267.457 363.44 267.977 363.52 268.177 363.56ZM52.9552 441.6H49.2352V414.76H52.8752V417.76C53.9152 415.84 56.1952 414.32 59.3152 414.32C65.0752 414.32 68.1552 418.76 68.1552 424.36C68.1552 430.08 64.8352 434.52 59.1952 434.52C56.2352 434.52 53.9952 433.12 52.9552 431.4V441.6ZM64.3152 424.36C64.3152 420.52 62.1552 417.64 58.6352 417.64C55.1952 417.64 52.9152 420.52 52.9152 424.36C52.9152 428.32 55.1952 431.16 58.6352 431.16C62.1152 431.16 64.3152 428.32 64.3152 424.36ZM83.6261 414.56V418.56C83.0661 418.48 82.5061 418.44 81.9861 418.44C78.8261 418.44 76.7061 420.12 76.7061 424.36V434H72.9461V414.76H76.6261V418.12C78.0261 415.16 80.4261 414.44 82.3861 414.44C82.9061 414.44 83.4261 414.52 83.6261 414.56ZM95.6783 431.24C98.8783 431.24 101.678 428.84 101.678 424.36C101.678 419.92 98.8783 417.52 95.6783 417.52C92.4783 417.52 89.6783 419.92 89.6783 424.36C89.6783 428.84 92.4783 431.24 95.6783 431.24ZM95.6783 414.16C101.438 414.16 105.518 418.52 105.518 424.36C105.518 430.24 101.438 434.6 95.6783 434.6C89.9183 434.6 85.8383 430.24 85.8383 424.36C85.8383 418.52 89.9183 414.16 95.6783 414.16ZM110.329 436.08V414.76H114.089V436.24C114.089 439.72 112.089 442.2 108.769 442.2C107.329 442.2 106.769 442 106.529 441.92V438.76C106.729 438.8 107.169 438.88 107.729 438.88C109.689 438.88 110.329 437.84 110.329 436.08ZM109.489 407.4C109.489 405.88 110.689 404.68 112.169 404.68C113.689 404.68 114.889 405.88 114.889 407.4C114.889 408.88 113.689 410.08 112.169 410.08C110.689 410.08 109.489 408.88 109.489 407.4ZM122.925 422.4H133.445C133.365 419.64 131.565 417.48 128.165 417.48C125.005 417.48 123.085 419.92 122.925 422.4ZM134.005 427.4L137.245 428.52C136.165 431.92 133.085 434.6 128.605 434.6C123.445 434.6 118.925 430.84 118.925 424.32C118.925 418.28 123.285 414.16 128.125 414.16C134.045 414.16 137.365 418.24 137.365 424.24C137.365 424.72 137.325 425.2 137.285 425.44H122.805C122.885 428.88 125.365 431.28 128.605 431.28C131.725 431.28 133.285 429.56 134.005 427.4ZM150.245 417.64C147.205 417.64 144.405 419.88 144.405 424.36C144.405 428.76 147.165 431.12 150.285 431.12C153.885 431.12 155.205 428.68 155.645 427.16L158.965 428.6C158.045 431.36 155.285 434.6 150.285 434.6C144.685 434.6 140.565 430.2 140.565 424.36C140.565 418.36 144.765 414.16 150.245 414.16C155.365 414.16 158.005 417.36 158.805 420.28L155.405 421.72C154.925 419.84 153.525 417.64 150.245 417.64ZM168.416 408.68V414.76H172.576V418.16H168.416V428.16C168.416 429.92 169.136 430.8 171.096 430.8C171.576 430.8 172.256 430.72 172.576 430.64V433.84C172.256 433.96 171.296 434.2 170.016 434.2C166.736 434.2 164.656 432.2 164.656 428.72V418.16H160.976V414.76H162.016C164.096 414.76 164.976 413.48 164.976 411.8V408.68H168.416ZM185.795 429L189.195 427.8C189.435 429.8 190.955 431.4 193.675 431.4C195.795 431.4 196.955 430.2 196.955 428.84C196.955 427.64 196.075 426.72 194.475 426.36L191.195 425.64C188.195 425 186.395 422.96 186.395 420.24C186.395 416.96 189.475 414.16 193.235 414.16C198.515 414.16 200.155 417.6 200.555 419.32L197.235 420.56C197.075 419.56 196.275 417.36 193.235 417.36C191.315 417.36 190.035 418.6 190.035 419.92C190.035 421.08 190.755 421.92 192.235 422.24L195.355 422.92C198.835 423.68 200.675 425.8 200.675 428.64C200.675 431.36 198.395 434.6 193.635 434.6C188.355 434.6 186.115 431.2 185.795 429ZM209.44 422.68V434H205.68V405.04H209.44V417C210.84 414.96 213.08 414.2 215.28 414.2C219.88 414.2 222.16 417.52 222.16 421.8V434H218.4V422.44C218.4 419.76 217.28 417.6 213.92 417.6C211.04 417.6 209.52 419.84 209.44 422.68ZM236.381 431.24C239.581 431.24 242.381 428.84 242.381 424.36C242.381 419.92 239.581 417.52 236.381 417.52C233.181 417.52 230.381 419.92 230.381 424.36C230.381 428.84 233.181 431.24 236.381 431.24ZM236.381 414.16C242.141 414.16 246.221 418.52 246.221 424.36C246.221 430.24 242.141 434.6 236.381 434.6C230.621 434.6 226.541 430.24 226.541 424.36C226.541 418.52 230.621 414.16 236.381 414.16ZM263.517 431.68C262.477 433.68 260.077 434.6 257.837 434.6C253.357 434.6 250.637 431.24 250.637 426.88V414.76H254.397V426.32C254.397 428.96 255.597 431.28 258.757 431.28C261.797 431.28 263.317 429.28 263.317 426.36V414.76H267.077V430.44C267.077 431.96 267.197 433.32 267.277 434H263.677C263.597 433.56 263.517 432.48 263.517 431.68ZM277.253 434H273.493V405.04H277.253V434ZM285.889 424.32C285.889 428.28 287.929 431.2 291.529 431.2C294.969 431.2 297.089 428.2 297.089 424.24C297.089 420.28 295.009 417.56 291.569 417.56C288.129 417.56 285.889 420.36 285.889 424.32ZM297.129 431.4V431.08C296.209 432.92 294.169 434.52 291.169 434.52C285.529 434.52 282.049 430.04 282.049 424.32C282.049 418.88 285.729 414.24 291.169 414.24C294.569 414.24 296.409 415.92 297.049 417.48V405.04H300.769V430.44C300.769 432.28 300.929 433.68 300.969 434H297.329C297.249 433.56 297.129 432.56 297.129 431.4ZM90.3844 480L93.7844 478.8C94.0244 480.8 95.5444 482.4 98.2644 482.4C100.384 482.4 101.544 481.2 101.544 479.84C101.544 478.64 100.664 477.72 99.0644 477.36L95.7844 476.64C92.7844 476 90.9844 473.96 90.9844 471.24C90.9844 467.96 94.0644 465.16 97.8244 465.16C103.104 465.16 104.744 468.6 105.144 470.32L101.824 471.56C101.664 470.56 100.864 468.36 97.8244 468.36C95.9044 468.36 94.6244 469.6 94.6244 470.92C94.6244 472.08 95.3444 472.92 96.8244 473.24L99.9444 473.92C103.424 474.68 105.264 476.8 105.264 479.64C105.264 482.36 102.984 485.6 98.2244 485.6C92.9444 485.6 90.7044 482.2 90.3844 480ZM115.31 459.68V465.76H119.47V469.16H115.31V479.16C115.31 480.92 116.03 481.8 117.99 481.8C118.47 481.8 119.15 481.72 119.47 481.64V484.84C119.15 484.96 118.19 485.2 116.91 485.2C113.63 485.2 111.55 483.2 111.55 479.72V469.16H107.87V465.76H108.91C110.99 465.76 111.87 464.48 111.87 462.8V459.68H115.31ZM134.778 465.56V469.56C134.218 469.48 133.658 469.44 133.138 469.44C129.978 469.44 127.858 471.12 127.858 475.36V485H124.098V465.76H127.778V469.12C129.178 466.16 131.578 465.44 133.538 465.44C134.058 465.44 134.578 465.52 134.778 465.56ZM142.506 485H138.786V465.76H142.506V485ZM137.946 458.48C137.946 456.96 139.146 455.76 140.626 455.76C142.146 455.76 143.346 456.96 143.346 458.48C143.346 459.96 142.146 461.16 140.626 461.16C139.146 461.16 137.946 459.96 137.946 458.48ZM165.383 465.76L157.703 485H153.903L146.103 465.76H150.343L155.823 480.6L161.343 465.76H165.383ZM170.835 473.4H181.355C181.275 470.64 179.475 468.48 176.075 468.48C172.915 468.48 170.995 470.92 170.835 473.4ZM181.915 478.4L185.155 479.52C184.075 482.92 180.995 485.6 176.515 485.6C171.355 485.6 166.835 481.84 166.835 475.32C166.835 469.28 171.195 465.16 176.035 465.16C181.955 465.16 185.275 469.24 185.275 475.24C185.275 475.72 185.235 476.2 185.195 476.44H170.715C170.795 479.88 173.275 482.28 176.515 482.28C179.635 482.28 181.195 480.56 181.915 478.4ZM209.755 469.16H205.115V485H201.235V469.16H197.675V465.76H201.235V462.52C201.235 458.24 204.075 455.92 207.555 455.92C208.835 455.92 209.635 456.2 209.795 456.32V459.68C209.595 459.6 209.115 459.44 208.155 459.44C206.835 459.44 205.115 460.08 205.115 462.72V465.76H209.755V469.16ZM221.245 482.24C224.445 482.24 227.245 479.84 227.245 475.36C227.245 470.92 224.445 468.52 221.245 468.52C218.045 468.52 215.245 470.92 215.245 475.36C215.245 479.84 218.045 482.24 221.245 482.24ZM221.245 465.16C227.005 465.16 231.085 469.52 231.085 475.36C231.085 481.24 227.005 485.6 221.245 485.6C215.485 485.6 211.405 481.24 211.405 475.36C211.405 469.52 215.485 465.16 221.245 465.16ZM246.575 465.56V469.56C246.015 469.48 245.455 469.44 244.935 469.44C241.775 469.44 239.655 471.12 239.655 475.36V485H235.895V465.76H239.575V469.12C240.975 466.16 243.375 465.44 245.335 465.44C245.855 465.44 246.375 465.52 246.575 465.56ZM257.154 456.64L256.154 476.88H253.474L252.434 456.64H257.154ZM252.194 482.6C252.194 481.16 253.354 479.96 254.794 479.96C256.234 479.96 257.434 481.16 257.434 482.6C257.434 484.04 256.234 485.2 254.794 485.2C253.354 485.2 252.194 484.04 252.194 482.6Z" fill="black"/>
<path d="M175.888 588L175.888 707.5C175.888 718.546 184.843 727.5 195.888 727.5L407.5 727.5C418.546 727.5 427.5 718.546 427.5 707.5L427.5 494.5C427.5 483.454 436.454 474.5 447.5 474.5L805 474.5C816.046 474.5 825 465.546 825 454.5L825 380.5" stroke="black" stroke-width="3" stroke-dasharray="10 10"/>
<circle cx="175" cy="418" r="173.5" stroke="black" stroke-width="3" stroke-dasharray="10 10"/>
<path d="M836 381.5C836 387.299 831.299 392 825.5 392C819.701 392 815 387.299 815 381.5C815 375.701 819.701 371 825.5 371C831.299 371 836 375.701 836 381.5ZM818.222 381.5C818.222 385.52 821.48 388.778 825.5 388.778C829.52 388.778 832.778 385.52 832.778 381.5C832.778 377.48 829.52 374.222 825.5 374.222C821.48 374.222 818.222 377.48 818.222 381.5Z" fill="black"/>
</svg>
